<?xml version="1.0" encoding="UTF-8"?> <!-- Generator: Adobe Illustrator 24.0.1, SVG Export Plug-In . SVG Version: 6.00 Build 0) --> <svg xmlns="http://www.w3.org/2000/svg" xmlns:xlink="http://www.w3.org/1999/xlink" version="1.1" id="Layer_1" x="0px" y="0px" viewBox="0 0 1464.3 901.3" style="enable-background:new 0 0 1464.3 901.3;" xml:space="preserve"> <style type="text/css"> .st0{fill:#F5F6F7;} .st1{fill:#1DB0C0;} .st2{fill:#4EC3E0;} .st3{fill:#035984;} .st4{fill:#0084D4;} .st5{fill:#687782;} .st6{fill:#3D5466;} .st7{fill:#FAD1AB;} .st8{fill:#E05766;} .st9{fill:#FABB82;} .st10{fill:#D9DDE0;} .st11{fill:#C24E5F;} .st12{fill:#FFFFFF;} .st13{fill:#7D97F4;} .st14{fill:#D7DBDE;} .st15{fill:#FFB27D;} .st16{fill:#D9935C;} .st17{fill:#8C979F;} .st18{fill:#C65447;} .st19{fill:#FDC02F;} .st20{fill:#211F1F;} .st21{fill:#E0A232;} .st22{fill:#3C5466;} </style> <title>CC3</title> <path class="st0" d="M1105.2,420.4c25.2,24.3,61.3,33.1,95.5,25.2c32.3-7.5,70.8-5.3,110,21.7c75.9,52.3,79.3,145.4,45.2,203 c-17.7,29.9-23.3,65.4-14.4,99c7.8,29.3,1.3,62.2-55.3,77.2c-114.4,30.5-742.2,0.4-822.4-13.2S84.4,744.7,274.2,644.5 c0,0-329-355.2-120.8-546.7c188.5-173.4,385-75.9,475-13c33.9,23.7,74.5,35.9,115.8,34.8c105.3-2.9,300.1,19.5,292.2,225.8 c-1.1,27.6,16.5,52.4,42.9,60.5C1088.8,408.9,1098,413.4,1105.2,420.4z"></path> <path class="st1" d="M1356.9,612.8c18-4.3,51.7,43.4,87.4,27L1456,602c0,0-49,6.9-67.7-4.6s-7.5-20.3,5.8-18.9s47,20.3,61.1,11.7 c0,0,11.1-6.9-0.5-19.3s-3.1-40.9,6.1-50.1c0,0-7.6,0.7-25.5-5.8s-35.5-14.4-42.6,1.3c-7.1,15.7-8.2,39-18.8,39.3 s-17.5-42.7,13.4-57.5c0,0-27.7-12.5-36.6-9.3s-17.6,19.9-10.4,45c7.2,25.1,3,38.7-5,38.8s-17.9-75.6,8.2-86c0,0-56.7-1.2-63,2.2 s-4.3,36.6,4.6,56s2.6,39.8-4.1,44.5s-3.6-22.4-8.6-34.5s-3.3-65.9-3.3-65.9s-3.8,6.6-23,9s-49.4,17.7-45.9,29.3 s30.5,63.2,32.8,81.3s0.2,33.2-7,25.4s-10.5-31.3-17.8-47.4s-31.2-55.1-24.6-65.3c0,0-48.2,19.5-49.2,68.2c0,0,14.3,21.8,36.6,32.2 s31.1,15.8,30.2,24.3s-16.2,1.2-29.8-5.7s-45.8-22.2-48.5-33.5c0,0,2.7,73.5,52.4,80.2c46.6,6.3,52,1.2,52.5,0.5 c-1.6,2.6-50.7,81.7,51.4,103.4c0,0-21.9-11.5-21.2-28s-14.3-41.8-2.6-42.8s8.9,59.1,32.3,68.7s58.9-5.2,66.7-32 c0,0-23.1,1.9-38.8-18.1s-31.5-51.4-12.2-45.8s50.5,64.9,67.4,66.4S1416,708,1416,708s-8.9-0.1-36.8-11.4s-57.2-29.8-49.9-33.8 s25.7,9.5,42.5,20.9s42.8,16.1,49.3,7.5s19.7-39.7,19.7-39.7s-38.5-7.3-56.3-8.9S1338.9,617.1,1356.9,612.8z M1264.9,683.3 c-18.9-15.5,1.7-16.6,15.8-14.4C1291.4,670.6,1283.8,698.8,1264.9,683.3z M1301.1,654.2c-12.7-10-11.6-18.3-2.6-17.9 C1319.2,637.1,1313.8,664.2,1301.1,654.2L1301.1,654.2z M1335.7,619.1c-7.2-5-8.7-8.8,0.4-12.7S1342.9,624.1,1335.7,619.1z"></path> <path class="st2" d="M151,383.3c-12.7-19,28-78.4-6.3-112.6L96,273.4c0,0,29.1,53.6,23.7,80.2s-20.2,17.3-24.3,1.4s3.3-63-12.8-75.6 c0,0-12.8-9.8-22.1,8.9s-46,21.1-60.6,14.5c0,0,4.1,8.5,4.2,32S2.9,382,24,383.5s48.7-7.3,53.5,4.9S35.6,427,5.2,397.6 c0,0-2.6,37.4,5,46.3s30.6,11.8,56.5-7.3s43.4-20,47-10.9s-79.6,53.1-102.9,27.5c0,0,23,66,29.6,71.9s44.2-10.7,62.8-29.3 s44.9-20.1,53.2-14.4s-24.3,13.8-36.1,24.8c-11.8,11-74.8,32.1-74.8,32.1s9.3,1.6,20.3,22.7s41.6,49.5,53.6,40.5 s59.9-62.4,79.9-72.8s38.3-14.6,32.3-2.8s-31.6,25.5-47.1,40.9s-50.2,59.8-64.9,56.4c0,0,43.2,47.3,100,27.6c0,0,19-25.9,21.6-56.1 s4.9-42.7,15.1-45.4c10.2-2.6,8.3,18.2,6.2,36.9s-6,62.5-17.9,70.4c0,0,83.8-34.7,70.2-95c-12.7-56.6-21-60.6-22-60.9 c3.7,0.8,116.2,23.5,97.4-103.8c0,0-3.8,30.2-23.3,36.5s-42.1,34.4-48.3,21.3s64.4-35.7,65.6-66.8s-31.4-65.9-65.6-63.3 c0,0,12.2,25.9-4.2,52.7s-45.8,58.4-47.6,33.7s53.4-86.2,47.8-106.4S236,274.4,236,274.4s3.7,10.4,2.6,47.4s-9.9,79-17.6,72.1 s-0.1-33.8,5.9-58.1s0.3-56.4-12.5-60.2s-54.4-5.7-54.4-5.7s8.1,47.7,13.9,68.9S163.7,402.2,151,383.3z M272,459.3 c-9.8,28.5-20,5.1-23.4-12.1C245.9,434.1,281.8,430.9,272,459.3L272,459.3z M222.9,430c-6.1,19-16.2,21.2-19.6,10.7 C195.2,416.5,228.9,411,222.9,430L222.9,430z M167.4,405.1c-2.6,10.5-6.4,13.8-14.9,5S170,394.6,167.4,405.1L167.4,405.1z"></path> <path class="st3" d="M1057.8,436c-4.3-0.1-7.8-3.6-7.8-7.9c-0.8-44.2-14.6-263.5-207.8-309.4c-215.1-51-313.5,167.7-313.5,167.7 s-266.1-102-317.1,171.4C44.7,497.8,1.4,715.7,109.9,822.2c17.2,16.9,40.4,26.5,64.5,26.7l1045,9.4c30.7,0.3,57.9-19.8,66.6-49.2 C1318.6,699,1361.4,443.2,1057.8,436z"></path> <path class="st4" d="M1034,440.7c-4.3-0.1-7.8-3.6-7.8-7.9c-0.9-42.4-14.5-245.8-196.5-288.4C626.3,96.8,533.2,301,533.2,301 s-251.6-95.3-299.9,160C77,498,35.3,698,134.2,798.4c17.3,17.6,41,27.7,65.7,27.9l983.7,8.8c30.7,0.3,57.9-19.9,66.6-49.3 C1280.9,681,1317.3,447.5,1034,440.7z"></path> <path class="st4" d="M655.3,772.8c-8.3,0.1-16.5-0.6-24.7-2c-0.4,0-0.7-0.4-0.7-0.8c0-0.4,0.4-0.7,0.8-0.7h0.1 c10.9,2.1,25.5,2.5,41.1,1.3c11.7-0.8,23.2-2.8,34.5-5.9c0.4-0.1,0.8,0.1,1,0.5c0.1,0.4,0,0.7-0.4,0.9h-0.2c-11.4,3.2-23,5.2-34.8,6 C666.3,772.6,660.7,772.8,655.3,772.8z"></path> <path class="st4" d="M655.5,758.5c-12,0-22.7-1.1-30.3-3.3c-0.4-0.1-0.6-0.5-0.5-0.9l0,0c0.1-0.4,0.5-0.6,0.9-0.5l0,0l0,0 c10.8,3.1,28.1,4,46.4,2.5c18.1-1.5,35-5.1,45.2-9.8c0.4-0.2,0.8,0,1,0.4s0,0.8-0.4,1c-10.3,4.8-27.4,8.5-45.7,10 C666.4,758.3,660.8,758.5,655.5,758.5z"></path> <path class="st4" d="M655.3,744.2c-13,0-24.3-1.3-31.9-3.8c-0.4-0.1-0.6-0.5-0.5-0.9s0.5-0.6,0.9-0.6h0.1 c10.6,3.5,28.6,4.7,48.2,3.1c18.1-1.5,35-5.1,45.2-9.8c0.4-0.2,0.8,0,1,0.4s0,0.8-0.4,1c-10.3,4.8-27.4,8.5-45.7,10 C666.3,744,660.7,744.2,655.3,744.2z"></path> <path class="st4" d="M655.4,729.9c-9,0.1-18-0.7-26.9-2.5c-0.4-0.1-0.6-0.5-0.5-0.9s0.5-0.6,0.8-0.5c10.9,2.4,26.7,3.1,43.2,1.7 c17.9-1.4,34.7-5.1,44.9-9.7c0.4-0.2,0.8,0,1,0.4l0,0l0,0c0.2,0.4,0,0.8-0.3,1l0,0c-10.3,4.7-27.3,8.4-45.4,9.8 C666.4,729.7,660.8,729.9,655.4,729.9z"></path> <path class="st2" d="M216.4,589.6c0,0-36.6,20.2-39.6,54.5s-0.2,176.6,73.1,211.6s170.3,26.9,207.5,23.1s57.7-29.1,62.3-46.5 s12-82.1-27-103s-80.1-52.9-121.1-84S260.2,563.3,216.4,589.6z"></path> <path class="st5" d="M481.1,741.2c0,0-9.9,0.5-11.1,20.8c0,0,22.9,20.5,53.8,25.4c2.3,0.4-3.2-15.8-4.1-18 C515.8,758.9,503.2,752.2,481.1,741.2z"></path> <path class="st6" d="M370,717.3h20.8c0,0,63.9-70.6,105.8-77.7c0,0,29.2,37.2-1.5,106.8c-2.5,5.6-9.4,8.1-14.5,4.8 c-1.5-1-2.7-2.3-3.3-4l2.5-59.4c0,0-54.5,47.7-64,56.9S358.1,748.3,370,717.3z"></path> <path class="st5" d="M571.3,865.5c-8.7-7.7-22.6-16.2-42.7-18.7l-6.8,4.2c3.5,4.9,7.6,9.3,12.2,13.1c7.3,4.2,18.5,9.9,27.8,11.2 C570.9,876.4,572.2,871,571.3,865.5z"></path> <path class="st6" d="M519.7,769.3c-5.4,1.7-7.7,9.4-21.4,4.3c-10-3.7-19.4-8.6-28-14.8c-0.1,1-0.2,2-0.3,3.1c0,0,24.1,23,55,27.8 c1.7,0.3,3.2-0.9,3.5-2.6c0.1-0.5,0-1.1-0.2-1.6C526.1,779.9,523.2,774.4,519.7,769.3z"></path> <path class="st6" d="M577.9,872c-2-2.3-4.2-4.5-6.6-6.5c0.9,5.5-0.4,11-9.5,9.8c-9.3-1.2-20.5-7-27.8-11.2c9.1,7.8,23,16,40.5,15.5 c2.5-0.1,4.5-2.1,4.5-4.7C579,873.8,578.6,872.8,577.9,872z"></path> <path class="st6" d="M370.8,732.3l97.5,1.1c0,0,55.7,46.1,65.7,116.3c0,0,1.7,5.2-8.4,6c0,0-33.7-22-55.6-60.9 c-26.9-47.6-80.2-26.1-80.2-26.1c-17.5-12.6-42.3-15.2-60.9-19.4L370.8,732.3z"></path> <path class="st7" d="M373.1,653.8c0,0,10.5,52.6,61.9,73.4l18.3-2.2l4.3,6.9l-42.9,1.4c0,0-36.7-14.5-56.1-54.1 C357.9,677.9,347.2,655.8,373.1,653.8z"></path> <path class="st8" d="M378.7,731.5c0,0-11.9-32.5-14.5-64c0,0,8.7-7.5,14.2-10.8c1.8-1,2.4-3.3,1.5-5.1c-4-8.3-28.3-41-30.1-41.4 c-9.9-2.5-50.4-21.7-78.9,17.3c-12.2,16.8,2.4,68.3,58,121.7l11.5,2.2L378.7,731.5z"></path> <path class="st7" d="M332.7,674.6c0,0,33.2,39.3,75.6,45c0,0,11-10,19.1-6.4s19.3,19.3,19.3,19.3h-54.4c0,0-51.5-1.8-77.2-33 C317.1,688.6,323.3,682,332.7,674.6z"></path> <path class="st9" d="M313.3,582.7l-7.2,24.2c-0.4,1.1,0,2.3,1,3c3.5,2.4,12.6,7.2,25.1,2.5c1.4-0.6,2.4-1.9,2.5-3.4l1.7-21.1 L313.3,582.7z"></path> <path class="st7" d="M355.8,563.1c0,0-3.6,25.1-13.2,32.8s-28.4,1.9-34.8-17l12.6-32.3L355.8,563.1z"></path> <path d="M319.1,567.5c0.6,0.2,1.4-0.1,1.6-0.8c0-0.1,0-0.1,0-0.2c0.4-2.3,1.2-6.9,3-10c0,0-0.9-3.3,8.3,1.7s23.1,12.3,31.3,7.9 c8-4.2,16-25.6-5-21.6c-0.7,0.1-1.3-0.3-1.5-1l0,0c0-0.1,0-0.2,0-0.3c0.3-3.5-0.1-11.6-8.3-14.2c-7.6-2.4-11.8,1-13.6,3.1 c-0.4,0.5-1.2,0.6-1.7,0.2c-0.1-0.1-0.1-0.1-0.2-0.2c-2.3-3-8.5-9.3-17.7-5.3c-7.5,3.3-8.7,8-8.6,10.9c0,0.7-0.5,1.3-1.2,1.3l0,0 c-0.2,0-0.4,0-0.6-0.1c-2.3-1.1-6-1.6-9.6,2.8c-4.9,6.2,2.1,11.5,4.2,12.9c0.3,0.2,0.6,0.6,0.6,1c0,3.2,0.5,17.2,7.5,25.1 c0.5,0.5,1.2,0.6,1.8,0.1c0.1-0.1,0.3-0.3,0.3-0.5l5.4-12.9c0.3-0.6,0.9-0.9,1.5-0.7L319.1,567.5z"></path> <path class="st7" d="M319.2,570.1c0,0-3.3-13.4-8.3-9.1s1.3,14,7,15.8L319.2,570.1z"></path> <path class="st10" d="M443.9,735.6l24.4-81.5c1-3.3,4-5.7,7.4-5.9l33-2.3c2.6-0.2,4.8,1.8,5,4.3l0,0c0,0.6,0,1.3-0.2,1.9l-27.3,77.8 c-0.9,2.5-3.1,4.3-5.8,4.5l-32.5,3.6L443.9,735.6z"></path> <path class="st5" d="M489,681.7c-1.8,3.7-5,5.8-7,4.8s-2.3-4.8-0.4-8.5s5-5.8,7-4.8S490.8,678,489,681.7z"></path> <path class="st5" d="M447.9,738.1h-0.2l-69.2-3.5c-1.7-0.1-3-1.5-2.9-3.3s1.5-3,3.3-2.9l0,0l0,0l69.2,3.5c1.7,0,3.1,1.5,3,3.2 C451.1,736.8,449.6,738.1,447.9,738.1z"></path> <path class="st11" d="M364.2,668.2L364.2,668.2c-0.4,0-0.7-0.3-0.7-0.7l0,0c0-14.4-5.5-33.6-5.6-33.8c-0.1-0.4,0.1-0.8,0.5-0.9 c0.4-0.1,0.8,0.1,0.9,0.5l0,0c0.1,0.2,5.7,19.6,5.6,34.2C364.9,667.9,364.6,668.3,364.2,668.2z"></path> <path class="st11" d="M332.7,675.4c-0.2,0-0.4-0.1-0.6-0.3c-0.1-0.2-15.3-19.5-20.5-32.7c-0.1-0.4,0-0.8,0.4-1s0.8,0,1,0.4l0,0 c5.1,13,20.2,32.1,20.3,32.3c0.2,0.3,0.2,0.8-0.1,1l0,0C333,675.3,332.9,675.4,332.7,675.4z"></path> <path class="st11" d="M311.4,704.8l-0.5-0.2c-22-9.4-35.5-35.6-35.7-35.9c-0.2-0.4,0-0.8,0.3-1s0.8,0,1,0.3l0,0 c0.1,0.3,13.2,25.6,34.4,35l2.2-3.1c0.2-0.3,0.7-0.4,1-0.2s0.4,0.7,0.2,1L311.4,704.8z"></path> <path class="st12" d="M412.2,313.1h-59.1l10.4-87.2l-26.2-3.2l43.3-63.6l43.1,66.1h-21.2L412.2,313.1z M357.7,309h50l-9.7-87.9h18.2 l-35.7-54.7l-36.1,53.1l23.6,2.9L357.7,309z"></path> <path class="st12" d="M472.6,294.3l-43.1-65.1h21.2l-9.7-87.9h59l-10.4,86.1l26.2,3.2L472.6,294.3z M437,233.3l35.6,53.7l36.1-53.1 l-23.6-2.9l10.4-85.6h-50l9.7,87.9L437,233.3z"></path> <path class="st13" d="M512.1,120.4c-0.7,0-1.4-0.2-1.9-0.6c-1.4-1-2.9-2-4.4-2.9c-1.6-1-2-3.1-1-4.7c0.9-1.5,2.9-2,4.4-1.2l0.2,0.1 c1.5,1,3.1,2,4.6,3.1s1.9,3.2,0.8,4.7C514.2,119.8,513.2,120.4,512.1,120.4z"></path> <rect x="1034.9" y="766.5" class="st14" width="10.2" height="110.2"></rect> <path class="st14" d="M1084.6,878.8h-89.2v-5c0-0.9,0.7-1.6,1.6-1.6h85.9c0.9,0,1.7,0.8,1.7,1.7L1084.6,878.8z"></path> <path class="st14" d="M993.9,740.3h95.9c6.4,0,11.7,5.2,11.7,11.7v10.5c0,6.4-5.2,11.7-11.7,11.7h-95.9c-6.4,0-11.7-5.2-11.7-11.7 V752C982.2,745.5,987.4,740.3,993.9,740.3z"></path> <path class="st5" d="M983.2,857.2c0,0-29.1,21-24,35.1c0,0,31.8-13.7,35.7-24.5s-0.7-15.6-0.7-15.6L983.2,857.2z"></path> <path class="st15" d="M987.6,839.6l4.8,13.8c0.7,2.1,0,4.4-1.8,5.6c-1.2,0.7-2.5,1.2-3.9,1.5c-2.4,0.6-5-0.6-6.2-2.8l-5.7-10.7 L987.6,839.6z"></path> <path class="st6" d="M1033.9,715.8c0,0-59.8,10.4-85.4,34s23.5,99.3,23.5,99.3s8,0,17.8-8.4c0,0-29.2-56.8-4-73.4 c28.2-18.6,60.8-22.8,60.8-22.8l-12.1-26.8L1033.9,715.8z"></path> <path class="st5" d="M964.2,884.5c6.4-3,24.5-15.6,27.6-16.2s8.3,3,8.3,3s1.3,2.3-0.1,6.3c-4.2,5.2-13.7,15-26.4,18.6 c-9.3,2.7-15.9,0.2-19.9-2.8C956.4,889.6,960,886.5,964.2,884.5z"></path> <path class="st6" d="M973.7,896.3c12.7-3.7,22.1-13.5,26.4-18.6c-0.9,2.7-3.1,6.2-7.7,10.4c-11.4,10.2-33.1,14-37.7,13.2 c-3.7-0.6-3.4-4-0.9-7.7C957.8,896.5,964.3,899,973.7,896.3z"></path> <path class="st15" d="M1005.6,862.3c-0.1,1.8-3.7,7.8-5.8,11.2c-1,1.6-2.8,2.6-4.7,2.6c-1.3,0-2.6-0.1-3.8-0.5 c-1.9-0.6-3-2.6-2.4-4.4l4.1-14L1005.6,862.3z"></path> <path class="st6" d="M1091.4,697.9c0,0,13.3,35.5,0,46.3s-44.9,23-52,44.4s-19.1,63.3-35.1,78.1c0,0-11.3-1.1-15.5-5.6 c0,0,9.2-62.4,15.2-78.4c5.2-13.9,12.9-33.9,27.7-45c4.2-3.2,3.5-8.3,1.5-13.2l-3.6-9L1091.4,697.9z"></path> <path class="st2" d="M953,670.1c22.2,1.3,15.3-34.2,14.9-35.6l33.8,23.9c0,0-1.8,19-29.9,29c-6.2,2.3-12.9,2.8-19.3,1.4 C954.6,682.7,954.8,676.2,953,670.1z"></path> <path class="st16" d="M909.9,659.4c8.3-5.8,17.7,0,17.7,0c11.1,7.2,19.3,10.3,25.3,10.7c1.8,6.1,1.6,12.6-0.5,18.6 c-12.5-2.7-21.3-11.7-25.2-16.3c-1.4-1.7-3.8-1.9-5.5-0.6c-1.7,1.4-3.4,3.2-3.1,5.2c0.6,3.9-3.9,5.1-4.2,3.7s1.5-9.7,1.5-9.7 s-9,9-12.5,12.5s-7.9,0-7.9,0S901.7,665.1,909.9,659.4z"></path> <path class="st2" d="M1056.7,579.5c0,0-32.4-13-92.6,36.8c0,0-5,10.4,0.5,19.7s57.8,54.5,65,79.5c0,0,31.2,10.1,63.4-13.9 C1093,701.6,1090.1,631.9,1056.7,579.5z"></path> <path class="st16" d="M992.7,568l15.9,19.3c1.6,1.9,1.9,4.6,0.8,6.8c-2.2,4.5-7.5,11.1-19.1,10.2c-3.4-0.3-6.5-2.4-8-5.5l-11.1-23 L992.7,568z"></path> <path class="st2" d="M1081.8,662.3c3.8-15.3-34.3-49.4-34.3-49.4l9.2-33.3c0,0,82.3,54.7,61.3,98.7c-2.5,5.6-6.5,10.3-11.6,13.7 C1099.8,674.1,1089.2,666,1081.8,662.3z"></path> <path class="st1" d="M1081.8,660c0.4,0,0.8-0.3,0.9-0.7c3.8-15.7-33-48.9-34.6-50.3c-0.4-0.3-0.9-0.3-1.3,0.1 c-0.3,0.4-0.3,0.9,0.1,1.2s37.6,33.9,34,48.5c-0.1,0.5,0.2,1,0.7,1.1l0,0l0,0L1081.8,660z"></path> <path class="st16" d="M1024.1,661c0,0,45.1,17.5,56.2,4.3c0.7-0.9,1.2-1.9,1.5-3c7.4,3.7,18,11.8,24.6,29.7 c-23.7,15.2-64.3-8.4-75.3-15.4c-1.8-1.2-4-1.5-6.1-1.1c-4.2,0.9-11.5,2.2-15.5,1.6c-5.8-0.9-14,19.5-23.4,13.2 C986.1,690.2,994.2,654.8,1024.1,661z"></path> <path class="st16" d="M958,539.6c-0.2,0.6,3.7,42.9,3.7,42.9l24.1-2.7l2.2-40.6C988.1,539.1,960.7,529.2,958,539.6z"></path> <path d="M981.9,547.5l0.5,21.5c0,0.3,0,0.5-0.1,0.8c-0.4,1.6-2.3,7.1-7.8,4.9c-5-2-9.6-3.8-13-3.2c-1.5,0.3-2.6,1.6-2.5,3.2 c0.6,6.7,1.7,13.3,3.3,19.8c0.4,1.5,1.9,2.4,3.4,2.2c4.6-0.8,14.2-2.8,21.6-6.2c1-0.5,1.7-1.4,1.8-2.5c0.4-5.4,1.5-21.7,2.5-26.2 c1-4.2,6.5-6.2,8.9-6.9c0.8-0.2,1.4-0.7,1.8-1.5c1.3-2.5,3.5-8.5-4-11.8c-1.5-0.7-2.2-2.4-1.5-4l0,0v-0.1c1.5-3,2.5-7.8-3.2-11.2 s-10.6-0.7-13.4,1.7c-1.1,0.9-2.7,0.9-3.8,0c-0.8-0.6-1.8-0.7-2.7-0.2c-1.5,0.7-3.3,0-3.9-1.6l-0.1-0.2c-1.1-3.1-3.7-6.7-9.8-6.3 c-10.7,0.7-13.2,12.2-11.2,19.3s13.6,5.8,19.7,3c4.6-2.1,9.9,1.2,12.2,3C981.4,545.8,981.8,546.6,981.9,547.5z"></path> <path class="st16" d="M991.8,569.7c0,0-3-12.6,1.8-15.1s11.2-0.2,8.8,8.4C999.3,573.7,991.8,569.7,991.8,569.7z"></path> <path class="st12" d="M1001,695.5h-0.2l-94.7-0.1c-2.3,0.1-4.3-1.7-4.4-4.1c-0.1-2.3,1.7-4.3,4-4.4c0.1,0,0.3,0,0.4,0l94.7,0.1 c2.3,0,4.2,2,4.2,4.3C1004.9,693.6,1003.2,695.4,1001,695.5L1001,695.5z"></path> <path class="st12" d="M821,609.5h78.9c5.8,0,11.1,3.4,13.6,8.6l36.5,77.3h-98c-3.7,0-7.1-2.3-8.5-5.8l-28.3-71.5 c-1.3-3.2,0.3-6.9,3.6-8.2C819.4,609.7,820.2,609.5,821,609.5z"></path> <path class="st10" d="M876.5,649.2c1.7,5.3,0.4,10.5-2.8,11.5s-7.3-2.4-9-7.7s-0.5-10.5,2.8-11.5S874.8,643.9,876.5,649.2z"></path> <path class="st14" d="M833.8,898.7c-0.5,0-1.1-0.1-1.6-0.3c-2-0.8-2.9-3-2.1-5l0,0v-0.1l83.5-187.9c0.9-2,3.2-2.9,5.2-2 c1.9,0.8,2.9,3,2.1,4.9l0,0v0.1l-83.5,187.9C836.8,897.7,835.3,898.7,833.8,898.7z"></path> <path class="st14" d="M927.8,898.7c-1.6,0-3-0.9-3.7-2.3l-83.5-187.8c-0.8-1.9,0-4.2,2-5l0,0l0.1-0.1c2-0.9,4.3,0,5.2,2l83.5,187.9 c0.8,1.9-0.1,4.2-2,5l0,0h-0.1C928.9,898.5,928.3,898.6,927.8,898.7z"></path> <path class="st14" d="M1092.1,898.7c-0.5,0-1.1-0.1-1.6-0.3c-2-0.8-2.9-3-2.2-5l0,0v-0.1l83.5-187.9c0.9-2,3.2-2.9,5.2-2 c1.9,0.8,2.9,3,2.1,4.9l0,0v0.1l-83.5,187.8C1095.1,897.7,1093.7,898.6,1092.1,898.7z"></path> <path class="st14" d="M1186.1,898.7c-1.6,0-3-0.9-3.7-2.3L1099,708.5c-0.8-1.9,0.1-4.2,2-5h0.1c2-0.9,4.3,0,5.2,2l83.5,187.9 c0.8,1.9-0.1,4.2-2,5h-0.1C1187.2,898.5,1186.7,898.6,1186.1,898.7z"></path> <path class="st14" d="M1195.9,699.6c0.2-1.2-0.1-2.5-0.8-3.5c-0.7-0.9-1.7-1.5-2.9-1.5H812.5c-1.5,0-2.9,0.9-3.6,2.2 c-0.8,1.4-0.9,3.1-0.3,4.6l4.1,10c0.8,2.2,2.9,3.7,5.2,3.7h371.7c2.2-0.1,4-1.8,4.3-4L1195.9,699.6z"></path> <path class="st3" d="M923.6,194.3l-10.6-6.1c-2.9-1.6-4.7-4.6-5-7.9c-0.7-8.2-2.4-16.2-5-24c-1-3.1-0.5-6.6,1.5-9.2l7.3-9.8 c3.1-4.1,3.2-9.7,0.3-14l-8.6-12.7c-2.9-4.3-8.2-6.2-13.1-4.9l-11.8,3.2c-3.2,0.9-6.6,0.1-9.1-2c-6.3-5.3-13.2-9.8-20.5-13.6 c-2.9-1.5-5-4.3-5.5-7.5l-1.7-12.1c-0.7-5.1-4.6-9.1-9.6-10.1l-15.1-2.9c-5.1-1-10.2,1.4-12.7,5.8l-6.1,10.6c-1.6,2.9-4.6,4.7-7.9,5 c-8.2,0.8-16.2,2.4-24,5c-3.1,1.1-6.6,0.5-9.2-1.5l-9.8-7.3c-4.1-3.1-9.7-3.2-14-0.3l-12.7,8.6c-4.3,2.9-6.2,8.1-4.9,13.1l3.1,11.8 c0.9,3.2,0.1,6.6-2,9.1c-5.3,6.3-9.8,13.2-13.5,20.5c-1.5,2.9-4.3,5-7.5,5.5l-12.1,1.7c-5.1,0.7-9.2,4.6-10.1,9.7l-2.9,15.1 c-1,5.1,1.4,10.2,5.8,12.7l10.6,6.1c2.9,1.6,4.7,4.6,5,7.9c0.8,8.2,2.4,16.2,5,24c1,3.1,0.5,6.6-1.5,9.2l-7.3,9.8 c-3.1,4.1-3.2,9.7-0.3,14l8.6,12.7c2.9,4.3,8.2,6.3,13.2,4.9l11.8-3.2c3.2-0.9,6.6-0.1,9.1,2c6.3,5.3,13.2,9.8,20.5,13.5 c2.9,1.5,5,4.3,5.5,7.5l1.7,12.1c0.7,5.1,4.6,9.2,9.7,10.1l15.1,2.9c5,1,10.1-1.3,12.7-5.8l6-10.6c1.6-2.9,4.6-4.7,7.9-5 c8.2-0.7,16.2-2.4,24-5c3.1-1,6.6-0.5,9.2,1.5l9.8,7.3c4.1,3.1,9.7,3.2,14,0.3l12.7-8.6c4.3-2.9,6.2-8.1,4.9-13.1l-3.2-11.8 c-0.9-3.2-0.1-6.6,2-9.1c5.3-6.3,9.8-13.2,13.5-20.5c1.5-2.9,4.3-5,7.5-5.5l12.1-1.7c5.1-0.7,9.2-4.6,10.1-9.7l2.9-15 C930.4,202,928,196.8,923.6,194.3z M792.3,279c-49.1-4.4-85.4-47.7-81.1-96.8s47.7-85.4,96.8-81.1c49.1,4.4,85.4,47.7,81.1,96.8 C884.8,247,841.4,283.3,792.3,279L792.3,279z"></path> <path class="st12" d="M785.5,321.7c-0.9,0-1.8-0.1-2.7-0.3l-15.1-2.9c-6-1.1-10.6-6-11.4-12l-1.7-12.1c-0.4-2.5-2-4.7-4.3-5.9 c-7.5-3.8-14.5-8.4-20.9-13.8c-2-1.7-4.6-2.3-7.1-1.6l-11.8,3.2c-5.8,1.6-12-0.7-15.5-5.7l-8.6-12.7c-3.4-5-3.3-11.7,0.4-16.5 l7.2-9.8c1.5-2.1,2-4.8,1.1-7.2c-2.6-7.9-4.3-16.2-5.1-24.5c-0.2-2.6-1.7-4.9-3.9-6.2l-10.5-6.1c-5.3-3-8-9-6.9-15l2.9-15.1 c1.1-6,6-10.6,12-11.4l12.1-1.7c2.5-0.4,4.7-2,5.9-4.3c3.8-7.5,8.4-14.5,13.8-20.9c1.7-2,2.3-4.6,1.6-7.1l-3.2-11.8 c-1.6-5.9,0.7-12.1,5.8-15.5l12.7-8.6c5-3.4,11.7-3.3,16.5,0.4l9.8,7.3c2.1,1.5,4.8,2,7.2,1.1c8-2.6,16.2-4.3,24.5-5.1 c2.6-0.2,4.9-1.7,6.2-3.9l6.1-10.6c3-5.3,9-8,15-6.9l15.1,2.9c6,1.1,10.6,6,11.4,12l1.7,12.1c0.4,2.5,2,4.7,4.3,5.9 c7.5,3.8,14.5,8.4,20.9,13.8c2,1.7,4.6,2.3,7.1,1.6l11.8-3.1c5.9-1.6,12.1,0.7,15.5,5.8l8.7,12.7c3.4,5,3.3,11.7-0.4,16.6l-7.3,9.8 c-1.5,2.1-2,4.8-1.1,7.2c2.6,8,4.3,16.2,5.1,24.5c0.2,2.6,1.7,4.9,3.9,6.1l10.6,6.1c5.3,3,8,9,6.9,15l-2.9,15.1 c-1.1,6-6,10.6-12,11.4l-12.1,1.8c-2.5,0.4-4.7,2-5.9,4.3c-3.8,7.5-8.4,14.5-13.8,20.9c-1.7,2-2.3,4.6-1.6,7.1l3.2,11.7 c1.6,5.9-0.7,12.1-5.8,15.5l-12.7,8.6c-5,3.4-11.7,3.3-16.5-0.4l-9.8-7.3c-2.1-1.5-4.8-2-7.2-1.1c-8,2.6-16.2,4.3-24.6,5.1 c-2.6,0.2-4.9,1.7-6.2,3.9l-6.1,10.6C795.3,319,790.6,321.7,785.5,321.7z M724.2,268.6c2.9,0,5.7,1,7.9,2.9 c6.2,5.2,12.9,9.6,20.1,13.2c3.6,1.8,6.1,5.2,6.7,9.2l1.7,12.1c0.6,4.2,3.8,7.5,7.9,8.3l15.1,2.9c4.1,0.8,8.3-1.1,10.4-4.8l6.1-10.6 c2-3.5,5.6-5.7,9.6-6.1c8-0.7,15.9-2.4,23.5-4.9c3.8-1.3,8-0.6,11.2,1.8l9.8,7.3c3.4,2.5,8,2.6,11.4,0.3l12.7-8.6 c3.5-2.4,5.1-6.7,4-10.7l-3.2-11.8c-1-3.9-0.1-8,2.5-11.1c5.2-6.1,9.6-12.9,13.2-20c1.8-3.6,5.2-6.1,9.2-6.7l12.1-1.7 c4.2-0.6,7.5-3.8,8.3-7.9l2.9-15.1c0.8-4.1-1.1-8.3-4.8-10.4l-10.6-6.1c-3.5-2-5.7-5.6-6.1-9.6c-0.7-8-2.3-15.9-4.8-23.6 c-1.3-3.8-0.6-8,1.8-11.2l7.3-9.8c2.5-3.4,2.6-8,0.3-11.4l-8.6-12.7c-2.4-3.5-6.7-5.1-10.7-4l-11.8,3.2c-3.9,1-8,0.1-11.1-2.5 c-6.2-5.2-13-9.6-20.2-13.2c-3.6-1.8-6.1-5.2-6.7-9.2L839.6,74c-0.6-4.2-3.8-7.5-7.9-8.3L816.6,63c-4.1-0.8-8.3,1.1-10.4,4.7 l-6.1,10.6c-2,3.5-5.6,5.7-9.6,6.1c-8,0.7-15.9,2.4-23.5,4.9c-3.8,1.3-8,0.6-11.2-1.8l-9.8-7.3c-3.4-2.5-8-2.6-11.4-0.3L722,88.5 c-3.5,2.4-5.1,6.7-4,10.7l3.2,11.8c1,3.9,0.1,8-2.5,11.1c-5.2,6.2-9.6,12.9-13.2,20.1c-1.8,3.6-5.2,6.1-9.2,6.7l-12.1,1.7 c-4.2,0.6-7.5,3.8-8.3,7.9l-2.9,15.1c-0.8,4.1,1.1,8.3,4.8,10.4l10.6,6.1c3.5,2,5.7,5.6,6.1,9.6c0.7,8,2.4,15.9,4.9,23.5 c1.3,3.8,0.6,8-1.8,11.2l-7.3,9.8c-2.5,3.4-2.6,8-0.3,11.4l8.6,12.7c2.4,3.5,6.7,5.1,10.7,4l11.8-3.2 C722.1,268.8,723.2,268.6,724.2,268.6L724.2,268.6z M800.2,281.6c-2.7,0-5.4-0.1-8.1-0.4l0,0c-50.3-4.5-87.5-48.9-83-99.2 s48.9-87.5,99.2-83s87.5,48.9,83,99.2C887.1,245.4,847.6,281.6,800.2,281.6z M792.5,276.9c47.9,4.2,90.2-31.2,94.5-79.1 s-31.2-90.2-79.1-94.5c-47.9-4.2-90.2,31.2-94.5,79.1C709.1,230.3,744.6,272.6,792.5,276.9C792.5,276.8,792.5,276.8,792.5,276.9 L792.5,276.9z"></path> <path class="st12" d="M765.2,128.5c-2.2,0.9,10.8,85.2-3.3,140.5c0,0,26,13.3,54.8,7.7c0,0,48.7-74.6,50.1-83.6 c1.5-10.2-6.3-62.3-6.3-62.3S819.2,105.1,765.2,128.5z"></path> <path class="st16" d="M830.8,163.9c25.2,0.9,27.2-20.8,25.8-35.2c-17.8-8.4-37.6-11.7-57.2-9.5C798.9,131.6,800.5,162.9,830.8,163.9 z"></path> <path class="st16" d="M838.3,81.6c0,0-12.5,26.5-19.8,37.6c-2.1,3.3-1.5,7.6,1.5,10.1c3.5,2.8,9.1,5.6,17.9,5.7c3.7,0,6.9-2.4,7.9-6 l8.2-30.2L838.3,81.6z"></path> <path class="st16" d="M860.5,130.9c0,0,36.9,67.3,103.4,13.1l7.6,12c0,0-48.8,75.2-108.8,23L860.5,130.9z"></path> <path class="st16" d="M1014.9,154.4c-0.8-2.7-2.8-4.9-5.5-6L983.7,138c0,0-0.4-3.3,5.4-5.6s4.5-8.8,4.5-8.8s-8,3.6-19.6,9.4 c-6.7,3.3-10.4,9.1-12.4,13.5l6.6,8.7c15.6,4.6,32,5.9,48.1,3.8L1014.9,154.4z"></path> <path class="st16" d="M765.2,128.5c0,0-62.5,32.4-55.6,93.5s101.6,5,101.6,5l-2.3-14.7c0,0-58,16.8-67.6,2.4 c-7.1-10.6,16.7-35.5,29.8-48c4.8-4.6,6.2-11.7,3.4-17.8L765.2,128.5z"></path> <path class="st10" d="M802.7,247.7l26.2-91.6c0.3-1,1.2-1.8,2.3-1.9c4.8-0.6,18.5-2.1,34.4-3.5c19.2-1.6,41.4-2.9,54.7-1.8 c1.5,0.1,2.6,1.4,2.5,2.9c0,0.3-0.1,0.7-0.3,1c-7.6,15.3-38.6,77.5-54.2,97.8c-0.5,0.7-1.3,1.1-2.2,1.1l-60.8-0.6 c-1.5,0-2.7-1.2-2.7-2.7l0,0C802.6,248.2,802.6,247.9,802.7,247.7z"></path> <path class="st17" d="M868.3,142.8l19-3.2c0.7-0.1,1.4,0.4,1.6,1.1c0,0.2,0,0.4,0,0.7l-1.9,5.7c-0.2,0.5-0.6,0.9-1.1,0.9l-18.3,2.4 c-0.7,0.1-1.4-0.4-1.5-1.2l0,0c0-0.2,0-0.3,0-0.5l1.2-5C867.3,143.2,867.7,142.8,868.3,142.8z"></path> <path class="st17" d="M854,158.9l1.6-8.2c0.2-0.8,0.8-1.4,1.7-1.5l38.4-3.9c1-0.1,2,0.7,2,1.7l0,0c0,0.2,0,0.4,0,0.6l-2.4,10.2 c-0.2,0.8-0.9,1.4-1.7,1.4l-37.5,1.9c-1,0.1-1.9-0.7-2-1.8l0,0C854,159.2,854,159,854,158.9z"></path> <path class="st16" d="M809,225.5c0,0-3.7-15-2.2-20.4s4.3-12.2,13.8-10.7c7,1.3,14,3.2,20.7,5.5c0,0-0.6,6.9-7.8,4.7l4.5,3.5 c0,0-0.6,5.6-6.8,2.6l4.2,4.6c0,0-2.6,4.6-7.1,1.6S821.8,227.4,809,225.5z"></path> <path class="st16" d="M881.1,59.8c0,0,5.8,13.4-1,33.8s-18,22.1-25,17.1s-16.2-14-17.3-32.5S873.1,42.9,881.1,59.8z"></path> <path class="st18" d="M851.5,77c0,0,12.3-27.6,30.8-10.4l1.4,7.1c0,0,17.6-5,11.8-20.9S868.8,26,850,36.3s-25.2,22.5-24.2,37 s11.9,9.5,11.9,9.5s2.1-10.7,7.2-12.6s5,6.2,5,6.2L851.5,77z"></path> <path class="st16" d="M847.3,77.3c0,0,6.4-14.1-2.6-14.7s-5.3,13.6-3.5,18.8L847.3,77.3z"></path> <path class="st18" d="M842.2,46.6c5-0.6,7.1-6.8,3.6-10.6c-11-12.1-31.9-25.4-61.6-4.9c-33.5,23.1-51.5,33.6-59.8,31.4 c-5.4-1.4-10.1,3.9-7.5,8.9c1.9,3.7,5.7,7.5,12.8,11C784.5,109.4,812.7,50.2,842.2,46.6z"></path> <path class="st2" d="M1284.7,371.9l-10.4-12.4c-2.8-3.4-3.8-7.9-2.6-12.1c2.8-10.5,4.5-21.4,4.8-32.3c0.1-4.4,2.4-8.4,6.1-10.8 l13.6-8.8c5.7-3.7,8.5-10.7,6.8-17.3l-4.9-19.8c-1.6-6.6-7.3-11.5-14.1-12.1l-16.2-1.4c-4.4-0.4-8.3-2.9-10.4-6.7 c-5.4-9.5-11.9-18.3-19.4-26.3c-3-3.2-4.3-7.6-3.4-11.9l3.4-15.9c1.4-6.7-1.6-13.6-7.4-17.1l-17.6-10.6c-5.9-3.5-13.3-3-18.6,1.4 l-12.4,10.4c-3.4,2.8-7.9,3.8-12.1,2.6c-10.5-2.8-21.4-4.5-32.3-4.8c-4.4-0.1-8.4-2.4-10.8-6.1l-8.8-13.6 c-3.7-5.8-10.7-8.5-17.3-6.8l-19.8,4.9c-6.6,1.6-11.5,7.3-12.1,14.1l-1.4,16.2c-0.4,4.4-2.9,8.3-6.7,10.4 c-9.5,5.4-18.3,12-26.3,19.4c-3.2,3-7.6,4.3-11.9,3.4l-15.9-3.4c-6.7-1.4-13.6,1.5-17.1,7.4L979,229.4c-3.5,5.9-3,13.3,1.4,18.6 l10.4,12.4c2.8,3.4,3.8,7.9,2.6,12.1c-2.8,10.5-4.5,21.4-4.8,32.3c-0.1,4.4-2.4,8.4-6.1,10.8l-13.6,8.8c-5.7,3.7-8.5,10.7-6.8,17.3 l4.9,19.8c1.7,6.6,7.3,11.5,14.2,12.1l16.2,1.4c4.4,0.4,8.3,2.9,10.4,6.7c5.4,9.5,12,18.3,19.4,26.3c3,3.2,4.3,7.6,3.4,11.9 L1027,436c-1.4,6.7,1.5,13.6,7.4,17.1l17.5,10.5c5.9,3.5,13.3,3,18.6-1.4l12.4-10.5c3.4-2.8,7.9-3.8,12.1-2.6 c10.6,2.8,21.4,4.5,32.3,4.8c4.4,0.1,8.4,2.4,10.8,6.1l8.8,13.7c3.7,5.7,10.7,8.5,17.3,6.8l19.8-4.9c6.6-1.6,11.5-7.3,12.1-14.1 l1.4-16.2c0.4-4.4,2.9-8.3,6.7-10.4c9.5-5.4,18.3-12,26.3-19.4c3.2-3,7.6-4.3,11.9-3.4l15.9,3.4c6.7,1.4,13.6-1.5,17.1-7.4 l10.5-17.5C1289.7,384.7,1289.1,377.2,1284.7,371.9z M1081.7,417.5c-59.4-28-84.8-98.9-56.7-158.3c28.1-59.4,98.9-84.8,158.3-56.7 c59.4,28,84.8,98.9,56.7,158.3C1212,420.1,1141.1,445.5,1081.7,417.5L1081.7,417.5L1081.7,417.5z"></path> <path class="st12" d="M1160.5,483.2c-6.2,0-11.9-3.1-15.3-8.3l-8.8-13.6c-2-3.1-5.4-5-9.1-5.1c-11.1-0.4-22.1-2-32.8-4.9 c-3.5-1-7.3-0.2-10.1,2.2l-12.4,10.4c-6,5-14.4,5.7-21.1,1.6l-17.5-10.5c-6.7-4-10.1-11.8-8.4-19.4l3.4-15.8c0.8-3.6-0.3-7.3-2.8-10 c-7.6-8.1-14.2-17.1-19.7-26.7c-1.8-3.2-5.1-5.3-8.7-5.6l-16.2-1.4c-7.8-0.7-14.2-6.2-16.1-13.8l-4.9-19.8 c-1.9-7.6,1.3-15.5,7.8-19.7l13.6-8.8c3.1-2,5-5.4,5.1-9.1c0.4-11.1,2-22.1,4.9-32.8c1-3.5,0.2-7.4-2.1-10.2l-10.4-12.4 c-5-6-5.6-14.4-1.6-21.1l10.5-17.5c4-6.7,11.8-10,19.4-8.4l15.9,3.4c3.6,0.8,7.3-0.3,10-2.8c8.1-7.6,17.1-14.2,26.7-19.7 c3.2-1.8,5.3-5.1,5.6-8.7l1.4-16.2c0.7-7.8,6.2-14.2,13.8-16.1l19.8-4.9c7.6-1.9,15.5,1.3,19.7,7.8l8.8,13.6c2,3.1,5.4,5,9.1,5.1 c11.1,0.4,22.1,2,32.8,4.9c3.5,1,7.3,0.2,10.1-2.2l12.4-10.4c6-5,14.4-5.7,21.1-1.6l17.5,10.5c6.7,4,10.1,11.8,8.4,19.4l-3.4,15.9 c-0.8,3.6,0.3,7.3,2.8,10c7.6,8.1,14.2,17.1,19.7,26.7c1.8,3.2,5.1,5.3,8.7,5.6l16.2,1.4c7.8,0.7,14.2,6.2,16.1,13.8l4.9,19.8 c1.9,7.5-1.2,15.5-7.8,19.7l-13.6,8.8c-3.1,2-4.9,5.4-5.1,9.1c-0.4,11.1-2,22.1-4.9,32.8c-1,3.5-0.1,7.3,2.2,10.1l10.4,12.4 c5,6,5.7,14.5,1.6,21.1l-10.5,17.5c-4,6.7-11.8,10-19.4,8.4l-15.9-3.4c-3.6-0.8-7.3,0.3-10,2.8c-8.1,7.6-17.1,14.2-26.7,19.7 c-3.2,1.8-5.3,5.1-5.6,8.7l-1.4,16.2c-0.7,7.7-6.2,14.2-13.8,16.1l-19.8,4.9C1163.4,483,1162,483.2,1160.5,483.2z M1091.5,446.5 c1.4,0,2.8,0.2,4.1,0.5c10.4,2.8,21.1,4.4,31.8,4.8c5.1,0.2,9.8,2.8,12.6,7.1l8.8,13.6c3.2,5,9.3,7.3,15,5.9l19.8-4.9 c5.7-1.4,9.9-6.3,10.4-12.2l1.4-16.2c0.5-5.1,3.4-9.6,7.8-12.1c9.3-5.4,18-11.8,25.9-19.1c3.7-3.5,8.9-4.9,13.9-3.9l15.9,3.4 c5.8,1.2,11.7-1.3,14.7-6.4l10.5-17.5c3-5.1,2.5-11.5-1.2-16l-10.4-12.4c-3.2-3.9-4.4-9.2-3-14.1c2.8-10.4,4.4-21.1,4.8-31.8 c0.2-5.1,2.8-9.8,7.1-12.6l13.6-8.8c5-3.2,7.3-9.2,5.9-14.9l-5-19.9c-1.4-5.7-6.3-9.9-12.2-10.4l-16.2-1.4 c-5.1-0.5-9.6-3.4-12.1-7.8c-5.4-9.3-11.8-18-19.1-25.9c-3.5-3.7-4.9-8.9-3.9-13.9l3.4-15.9c1.2-5.8-1.3-11.7-6.4-14.7l-17.5-10.5 c-5.1-3-11.5-2.5-16,1.2l-12.4,10.4c-3.9,3.2-9.2,4.4-14.1,3c-10.4-2.8-21.1-4.4-31.8-4.8c-5.1-0.2-9.8-2.8-12.5-7l-8.8-13.6 c-3.2-5-9.2-7.3-14.9-5.9l-19.8,4.9c-5.7,1.4-9.9,6.3-10.4,12.2l-1.4,16.2c-0.5,5.1-3.4,9.6-7.8,12.1c-9.3,5.3-18,11.7-25.9,19.1 c-3.7,3.5-8.9,4.9-13.9,3.9l-15.8-3.3c-5.8-1.2-11.7,1.3-14.7,6.4l-10.5,17.5c-3,5.1-2.5,11.5,1.2,16l10.4,12.4 c3.2,3.9,4.4,9.2,3,14.1c-2.8,10.4-4.4,21.1-4.8,31.8c-0.2,5.1-2.8,9.8-7.1,12.6l-13.6,8.8c-5,3.2-7.3,9.2-5.9,15l5,19.9 c1.4,5.7,6.3,9.9,12.2,10.4l16.1,1.5c5.1,0.5,9.6,3.4,12.2,7.8c5.4,9.3,11.7,18,19.1,25.9c3.5,3.7,4.9,8.9,3.9,13.9l-3.4,15.9 c-1.2,5.8,1.3,11.7,6.4,14.7l17.5,10.5c5.1,3,11.5,2.5,16-1.2l12.4-10.4C1084.2,447.7,1087.8,446.5,1091.5,446.5L1091.5,446.5z M1132.3,431c-17.8,0-35.4-4-51.5-11.6l0,0c-60.5-28.5-86.5-100.7-58-161.2s100.7-86.5,161.2-58s86.5,100.7,58,161.2 C1222,404,1179.2,431.1,1132.3,431L1132.3,431z M1082.7,415.5c58.3,27.5,127.8,2.5,155.3-55.8s2.5-127.8-55.8-155.3 s-127.8-2.5-155.3,55.7l0,0C999.5,318.4,1024.4,387.9,1082.7,415.5L1082.7,415.5z"></path> <path class="st19" d="M1061.6,276.9c0,0,51-12.8,104.9-5.1c15.2,2.2,28.6,11,36.8,23.9c14.7,23.3,35.6,64.9,31.2,108.3l-23.2,5.7 c0,0-16-51.5-34-72.4c0,0-21.3,48.6-20.2,75.3c0,0.8,0.1,1.5,0.1,2.2c2.4,26.1-102.3,4.9-102.3,4.9L1061.6,276.9z"></path> <path class="st9" d="M1102.8,233.1l2.3,36.2c0.1,3.3,2.3,6.1,5.4,7.1c7,2.1,20.3,4.6,33.3-0.7c2.4-1.1,3.6-3.8,2.8-6.4l-17.2-55.4 L1102.8,233.1z"></path> <path class="st7" d="M1097,180.6c0,0-11,25.3-11.8,38.5s-3.6,21.9,11.8,24.5s28.3-5,35.3-18.2c0,0,11-20.4,8.5-28.7 S1097,180.6,1097,180.6z"></path> <path class="st20" d="M1127,216.1h-2c0,0,8-16.4,1-19.3s-34.8-8.6-40.8-18.4c-5.8-9.5-0.6-21.8,7.1-25.2c0.5-0.2,1.1,0,1.3,0.5 l0.6,1.2c0.2,0.5,0.8,0.8,1.3,0.6c0.3-0.1,0.6-0.4,0.6-0.8l0,0c0.1-0.5,0.6-0.9,1.2-0.8c0.3,0.1,0.6,0.2,0.7,0.5 c1.8,3,6.8,7.8,20.2,10.2c18.9,3.5,31.4,11.1,31.8,24.2c0,0.6,0.4,1,0.9,1.1l0,0c0.2,0,0.5-0.1,0.7-0.2c1.4-0.9,3.6-1.3,6.6,1.3 c5.2,4.4,3.1,15.7-8.3,25c-0.5,0.3-0.6,0.9-0.3,1.4l0,0c0.1,0.1,0.2,0.2,0.3,0.3c2.1,1.3,5.2,4.5-2.8,8.8c-8.2,4.4-13,3.9-14.8,3.4 c-0.5-0.1-0.8-0.6-0.8-1.1l0.7-11.6c0.1-0.5-0.3-1-0.9-1.1h-0.1L1127,216.1z"></path> <path class="st7" d="M1126.5,218.5c0,0,4.2-16.1,11.4-11.6s-3.8,18.1-9.6,18.7L1126.5,218.5z"></path> <path class="st19" d="M1061.9,380.9c-2.3-16,14.3-39.4,21.1-48.3c2-2.5,3-5.7,3.1-8.9c0.2-22.6-9.3-37.1-24.5-46.9 c0,0-55.2,64.3-41.1,113.7c1.4,5,3.7,9.7,6.8,13.9C1029.5,385.9,1051.1,381.8,1061.9,380.9z"></path> <path class="st21" d="M1063,374.8l-2.1-0.2c1.8-15.6,15.5-35,21.3-42.5l1.7,1.3C1078.2,340.7,1064.7,359.6,1063,374.8z"></path> <path class="st7" d="M1062.4,383.1c-0.2-0.7-0.3-1.5-0.4-2.2c-10.8,0.9-32.4,4.9-34.6,23.6c24.6,32.6,92.5,20.8,92.5,20.8v-12.7 C1119.8,412.6,1067.7,403,1062.4,383.1z"></path> <path class="st7" d="M1113.3,421.8c0,0,10-23.6,27.7-15.3s16.3,13.9,16.3,13.9L1113.3,421.8z"></path> <path class="st22" d="M1111,426.7L1111,426.7c0.1,1.8,1.7,3.1,3.5,3.1l91.5-3.2c1.4-0.1,2.7-1,3.1-2.4l2.7-8.5 c0.5-1.8-0.4-3.7-2.2-4.2c-0.3-0.1-0.5-0.1-0.8-0.1l-33.4-1.8c-0.3,0-0.6,0-0.9,0.1l-60.8,13.5C1112,423.5,1110.9,425,1111,426.7z"></path> <path class="st14" d="M1154.8,297.1c-1.9,15.9-10.7,80.2-13.2,98.6c-0.3,2.3,1.3,4.4,3.6,4.8c0.2,0,0.5,0,0.7,0l148-4.2 c1.9-0.1,3.6-1.4,4-3.3l23-103.7c0.5-2.3-0.9-4.5-3.2-5c-0.4-0.1-0.8-0.1-1.2-0.1l-157.9,9.2 C1156.7,293.5,1155.1,295.1,1154.8,297.1z"></path> <path class="st22" d="M1214.3,362.1l-21.9,62.1l50.9,1.1l4.2-62.8c0.2-2.7-1.8-5-4.5-5.2l0,0h-0.7l-23.8,1.6 C1216.6,359,1215,360.3,1214.3,362.1z"></path> <path class="st22" d="M1171.8,425.1L1171.8,425.1c-0.5,1.4,0.3,2.9,1.7,3.3c0.3,0.1,0.6,0.1,0.9,0.1h79.7c1.5,0,2.6-1.2,2.6-2.6 v-3.4c0-1.4-1.2-2.6-2.6-2.6l0,0h-0.1l-79.7,3.4C1173.1,423.3,1172.2,424.1,1171.8,425.1z"></path> <path class="st12" d="M1152.8,362.6l-1.4-0.2l7.3-57.4c0.5-3.7,3.5-6.5,7.2-6.7l136.4-8.2l0.1,1.5l-136.4,8.2 c-3,0.2-5.4,2.4-5.8,5.4L1152.8,362.6z"></path> <rect x="1142.9" y="384.3" transform="matrix(0.125 -0.9922 0.9922 0.125 623.5081 1477.0931)" class="st12" width="12.5" height="1.5"></rect> <path class="st10" d="M482.8,57.1c-0.8,0-1.4-0.6-1.4-1.4c-0.1-7.3-2.5-42.5-34-49.9c-35.2-8.2-51.3,27.1-51.3,27.1 s-43.5-16.5-51.9,27.7c-27,6.4-34.3,41-17.1,58.4c3,3,7.1,4.8,11.4,4.8l170.2,1.5c5.3,0,10-3.4,11.5-8.6 C525.6,98.7,531.9,58.3,482.8,57.1z"></path> <path class="st10" d="M260.3,155.4c-0.5,0-0.8-0.4-0.8-0.8c-0.1-4.4-1.5-25.7-20.5-30.1c-21.2-5-31,16.4-31,16.4s-26.3-10-31.3,16.7 c-16.3,3.9-20.7,24.8-10.4,35.2c1.8,1.8,4.3,2.9,6.9,2.9l102.8,0.9c3.2,0,6.1-2.1,7-5.2C286.1,180.5,289.9,156.1,260.3,155.4z"></path> <polygon class="st21" points="471.3,455.4 481.9,479.5 493.7,462 "></polygon> <path class="st19" d="M573.7,393.8l-40,85.8c-1.5,3.3-5.4,4.8-8.8,3.3l0,0l-0.3-0.1L440,439.4c-1.3-0.7-1.9-2.2-1.2-3.6 c0.3-0.7,0.9-1.2,1.6-1.4L573.7,393.8z"></path> <polygon class="st21" points="471.3,455.4 573.7,393.8 484.9,462.5 487.6,469.3 "></polygon> <polygon class="st21" points="493,466.6 481.9,479.5 484.9,462.5 "></polygon> <polygon class="st1" points="1426.3,320.5 1406.5,338.2 1403,317.2 "></polygon> <path class="st2" d="M1358.3,221.2l0.7,95.4c0,3.7,3,6.7,6.7,6.7l0,0h0.3l95.7-4.3c1.5-0.1,2.6-1.3,2.6-2.8c0-0.7-0.4-1.4-0.9-1.9 L1358.3,221.2z"></path> <polygon class="st1" points="1426.3,320.5 1358.3,221.2 1410.8,321.3 1405.5,326.4 "></polygon> <polygon class="st1" points="1401.7,321.7 1406.5,338.2 1410.8,321.3 "></polygon> </svg> 