<?xml version="1.0" encoding="UTF-8"?> <!-- Generator: Adobe Illustrator 23.0.0, SVG Export Plug-In . SVG Version: 6.00 Build 0) --> <svg xmlns="http://www.w3.org/2000/svg" xmlns:xlink="http://www.w3.org/1999/xlink" version="1.1" id="Layer_1" x="0px" y="0px" viewBox="0 0 158 206.5" style="enable-background:new 0 0 158 206.5;" xml:space="preserve"> <style type="text/css"> .st0{fill:#0084D4;} </style> <path class="st0" d="M6.7,206.5c-0.3-0.3-0.5-0.6-0.9-0.8c-4.6-2.3-6.4-5-5.6-8.6c0.9-4.1,3.9-6.2,9-6.4c1.3,0,2.6-0.1,3.5-0.2 c0.2-4.9-0.3-9.7,0.8-14.1c2.4-10,9.1-16,19.4-17.3c4.6-0.5,6.6-2.5,8.1-6.6c4.9-14.5,7.9-29.5,9.7-44.7c0.7-6,1.3-11.9,2-18.4 c-6.2-0.3-12.8,0.1-12.9-7.8c-0.1-5.1,3.9-7.2,9.1-7.7c-0.7-1.8-1.5-3.2-1.8-4.7c-1.5-6.5-3.5-12.9-4.3-19.5 c-0.7-5.8,2.6-8.9,8.6-9.1c5.6-0.2,11.3-0.1,16.9,0c2.4,0,3.5-0.8,3.3-3.3c-0.1-1.1,0-2.1,0-3.2c0-6.1,0-6.1-6.1-7.2 c-3.5-0.6-6-3.8-6-7.5c0.1-3.7,2.7-7.2,6.3-7c4.6,0.2,6-1.4,6-5.9c0-3.9,3.8-5.1,6.7-6.6c0.3,0,0.5,0,0.8,0c4.4,1.8,7.4,4.5,7.1,9.9 c-0.2,3.4,2.9,2.4,4.8,2.5c3.7,0.2,6,2.3,7,5.6c1,3.4-0.8,6.9-4,8.4c-1.2,0.5-2.6,0.8-3.9,0.7c-2.9,0-4.2,1-4.1,4 c0.3,11.9-1.4,9.4,9.4,9.6c3.6,0.1,7.3-0.1,10.9,0c6,0.2,9.3,3.3,8.6,9.1c-0.9,6.7-2.9,13.3-4.5,19.9c-0.3,1.4-1,2.7-1.5,4.1 c7.6,2,10.3,4.3,9.8,8.4c-1,8-7.4,7-13.6,7.3c0.4,5.8,1,11.2,1.3,16.6c0.3,5.6-4.3,9.5-9.3,8c-3.8-1.2-5.3-4.2-5.7-8 c-0.5-4.7-0.9-9.3-1.7-14c-0.2-1.1-1.9-2.6-2.9-2.7c-5.5-0.3-11-0.3-16.5,0c-1,0.1-2.7,1.7-2.9,2.7c-1.4,9.5-2.2,19.2-4,28.6 c-2.2,11.4-5.2,22.7-7.9,34c-0.2,1-0.4,2.1-0.6,3.4c15.9,0,31.5,0,47.6,0c-1.3-4.2-2.6-8-3.6-11.9c-1.6-6.2,2.1-11.1,7.8-10.4 c3.7,0.4,5.5,2.9,6.6,6.2c1.4,4.3,2.9,8.6,4.3,13c0.7,2.3,2,3.3,4.6,3.5c10.9,0.9,18.9,6.3,22,17c1.3,4.6,0.7,9.7,1,14.9 c1.5,0.1,3.7,0.1,5.7,0.5c3.6,0.6,6.3,2.6,6.7,6.5c0.5,4-1.4,6.7-5.2,8.1c-0.6,0.2-1.1,0.7-1.7,1C102.9,206.5,54.8,206.5,6.7,206.5z M78.8,190.7c14.1,0,28.2,0,42.3,0c6,0,9.4-3.2,9.3-8.6c-0.1-5.1-3.5-8.2-9.3-8.2c-28.1,0-56.1,0-84.2,0c-5.7,0-9.7,3.7-9.5,8.6 c0.1,4.8,4,8.2,9.5,8.2C50.9,190.7,64.8,190.7,78.8,190.7z M58.5,56.4c1.5,6.7,4.1,12.3,8.2,17.1c0.6,0.7,1.9,0.9,2.9,1 c6.2,0.1,12.3,0.1,18.5,0c0.9,0,2.1-0.2,2.6-0.8c4.2-4.9,7.1-10.5,8.3-17.3C85.5,56.4,72.4,56.4,58.5,56.4z"></path> </svg> 