<?xml version="1.0" encoding="UTF-8"?> <svg xmlns="http://www.w3.org/2000/svg" viewBox="0 0 484.51 172.08"><defs><style>.cls-1{fill:#e05766;}</style></defs><title>Asset 1</title><g id="Layer_2" data-name="Layer 2"><g id="Layer_1-2" data-name="Layer 1"><path d="M414.77,60.7H397.26v52.7c.52,19.57,13.44,22.32,22.72,22.41h2.7V118.42H420c-2.19,0-5.21-.68-5.21-5.47Z"></path><path d="M446.38,32.68h-17.5V113.4c.52,19.57,13.44,22.32,22.71,22.41h2.7V118.42h-2.7c-2.19,0-5.21-.68-5.21-5.47Z"></path><path d="M295.62,113l0-24.43c0-18-9-29.3-25.12-29.3-10,0-18.47,3.38-23.12,11.79-4.1-7.5-11.33-11.79-21.22-11.79-7.66,0-14.43,2-19.28,6.7V60.67H189.47v73.11h17.38V91.6c.05-9.95,6-16.86,14.16-16.86S233.8,81.12,233.8,91v42.81h17.38V91.71h0c0-10,6-17,14.16-17S278.15,81.12,278.15,91v21.17c0,20.71,13.24,23.56,22.71,23.65h2.64V118.42h-2.62C298.69,118.4,295.62,117.74,295.62,113Z"></path><path class="cls-1" d="M395.53,41.79A10.44,10.44,0,1,1,406,52.09,10.41,10.41,0,0,1,395.53,41.79Z"></path><path d="M61,74.89c-12.41,0-21.76,9.57-21.76,22.33S48.62,119.56,61,119.56c12.71,0,22.5-9.57,22.5-22.34S73.74,74.89,61,74.89Z"></path><path d="M172.08,27.9A28,28,0,0,0,144.18,0H27.9A28,28,0,0,0,0,27.9V144.18a28,28,0,0,0,27.9,27.9H144.18a28,28,0,0,0,27.9-27.9ZM107.63,135.81H105c-6.74-.06-15.38-1.55-19.8-9.87a38.18,38.18,0,0,1-21.34,9.28l-.63.08q-.65.06-1.29.09c-.33,0-.65.06-1,.07s-.67,0-1,0-.82,0-1.25,0C38,135.52,21.9,119,21.9,97.22,21.9,75.84,37.62,59.44,58,59.09l.67,0c12.84,0,19.76,4.92,23.5,7.66v-6H99.75V113c0,4.79,3.1,5.45,5.29,5.47h2.59Zm34.58,0h-2.7c-9.28-.09-22.19-2.84-22.72-22.41,0-.4,0-36.92,0-36.92h-9.12V60.67h9.12v-28h17.5v28h16.32V76.48H134.33l0,36.47c0,4.79,3,5.45,5.22,5.47h2.7Z"></path><path d="M388.28,118.42c-2.19,0-5.29-.68-5.29-5.47V60.7H365.43v6c-3.73-2.74-10.65-7.66-23.49-7.66l-.67,0c-20.42.35-36.14,16.75-36.14,38.13,0,21.76,16.07,38.3,36.81,38.3.42,0,.83,0,1.25,0s.68,0,1,0,.66,0,1-.07.87,0,1.3-.09l.63-.08a38.12,38.12,0,0,0,21.33-9.28c4.43,8.32,13.07,9.81,19.81,9.87h2.62V118.42Zm-65.77-21.2c0-12.76,9.35-22.33,21.76-22.33,12.71,0,22.49,9.57,22.49,22.33s-9.78,22.34-22.49,22.34C331.86,119.56,322.51,110,322.51,97.22Z"></path><path d="M472,32.67v1.61H468.9v8.14H467V34.28h-3.12V32.67Zm10.55,9.75-.36-5.74c0-.75,0-1.68-.07-2.72H482c-.25.86-.54,2-.82,2.9l-1.76,5.42h-2l-1.76-5.56c-.18-.75-.46-1.9-.68-2.76h-.11c0,.89,0,1.83-.07,2.72l-.36,5.74H472.6l.72-9.75h2.9l1.69,4.77c.21.75.39,1.47.64,2.47h0c.25-.9.46-1.72.68-2.44l1.69-4.8h2.79l.76,9.75Z"></path></g></g></svg> 