<?xml version="1.0" encoding="UTF-8"?> <!-- Generator: Adobe Illustrator 21.0.0, SVG Export Plug-In . SVG Version: 6.00 Build 0) --> <svg xmlns="http://www.w3.org/2000/svg" xmlns:xlink="http://www.w3.org/1999/xlink" version="1.1" x="0px" y="0px" viewBox="0 0 374.6 469.2" style="enable-background:new 0 0 374.6 469.2;" xml:space="preserve"> <style type="text/css"> .st0{display:none;} .st1{display:inline;fill:#0084d4;} .st2{fill:#0084D4;} </style> <g id="Layer_1" class="st0"> <path class="st1" d="M-63.4,288.7c0-8.6,0-17.1,0-25.7c5-8.3,9.1-17.3,15.3-24.6c7.9-9.3,17.2-17.4,26.3-25.6 c30.3-27.5,77.5-12.8,86.4,27.1c1.3,5.9,4.1,7.2,8.8,8.2c14.6,3.1,27.7,10.8,32.6,24.3c5.8,15.8,15.4,23.3,30.1,30.2 c20,9.4,26.7,29,25.3,50.9c1,0.6,1.7,1.2,2.6,1.5c29.9,12.8,41.5,34.1,34.8,66c-1.4,6.5,2.2,8.5,6.2,10.2 c6.4,2.7,12.7,2.1,17.7-3.3c5.2-5.7,5.3-12.1,1.5-18.6c-1.1-1.8-2.7-3.3-3.9-5.1c-5.2-7.6-4.4-17.4,1.7-23.6 c6.6-6.7,16.1-7.4,24.2-1.6c2.2,1.6,4.2,3.6,6.4,5.2c6.3,4.5,13.1,5.8,19.4,0.4c6.5-5.7,6-13.1,2.3-20.1c-1.8-3.4-5.1-6-7.6-9.1 c-6.4-8-6-18.1,1-24.9c6.8-6.7,17.2-7,25-0.6c2.6,2.1,4.7,4.8,7.3,7c6.9,5.8,15.7,5.6,21.6-0.2c5.9-5.8,6.3-14.6,0.5-21.5 c-3.3-4-7.4-7.3-10.6-11.4c-5-6.4-5.4-13.6-1.2-20.6c4-6.5,10.4-10.3,17.9-8.5c5,1.2,9.6,4.9,13.8,8.3c7.9,6.2,17,6.4,23-0.1 c6-6.6,5.5-16.3-2.1-22.7c-40.7-34.8-81.2-69.8-122.4-104c-23.7-19.6-56.4-17.4-78.7,3.7c-5.6,5.3-10.8,10.8-16.3,16.2 c-23.1,22.4-56.2,23.1-78.3,1.8c-21.8-21.1-22.2-55-0.7-78.5C76.3,88.3,86.4,77.7,96.5,67c5.1-5.4,10.2-10.8,17.6-18.6 C95.6,44.2,79.6,40.6,63.6,37c-5.9-1.3-10.2,0.8-14.5,5.2c-25.5,26-51.4,51.6-77.2,77.3c-13.7,13.7-22.1,13.7-35.4,0.2 c0-5.5,0-11,0-16.5c31.9-32,63.7-64.3,96.1-95.8C37.1,3,44.9,0.1,51.2,0c31.2-0.3,60.5,7.7,87.8,22.7c5,2.7,8.5,2.5,13.3-0.1 c26.8-14.5,55.5-22.7,86-22.5c6.7,0,14.7,2.6,19.9,6.7c32,25.2,63.3,51.2,94.9,76.9c15.2,12.4,30.5,24.6,45.4,37.2 c7.4,6.2,9,15.5,4.8,23.1c-4.1,7.6-12.8,11.5-21.1,8.6c-3.9-1.4-7.5-4-10.8-6.7c-42.8-34.7-85.4-69.7-128.3-104.2 c-3.6-2.9-9.3-4.8-13.9-4.6c-22,1.2-42.5,8.2-61.8,18.7c-31.8,17.3-52.9,45.9-76.7,71.7c-6.6,7.1-4.6,17.9,2.2,24.1 c7,6.3,16.7,6.6,24.2,0c6.4-5.6,12.2-12,18.4-17.9c37.3-35,90.1-37.5,129.5-4.9c41.5,34.3,82.4,69.4,123.1,104.7 c29.9,26,19.9,74.8-17.5,88.1c-2.5,0.9-5.1,1.7-7.7,2.5c-0.7,20.9-9.2,37.2-27.4,47c-6.6,3.5-16.1,3-21,7.8 c-4.9,4.7-4.6,14.2-8.2,20.8c-9.2,16.7-24.6,23.8-42.8,25.4c-7.9,40.6-53,58.6-89,30.5c-0.9,0.6-2,1.1-2.9,1.9 c-27.4,22.5-73.5,12-85-25.8c-0.8-2.6-5.2-5.4-8.3-5.8c-20.9-2.7-36-12.9-44.5-32.3c-1.8-4.1-2.9-8.5-4.2-12.5 c-31.9-3.3-47.1-19.1-51.8-53.7C-43.2,322.6-56.3,308.8-63.4,288.7z M79.1,297.1c-4-4.3-7.1-9.2-11.5-12.1 c-5.8-3.8-11.9-1.7-16.7,2.9c-10,9.5-19.8,19.1-29.6,28.9c-7.3,7.4-7.9,16.4-1.9,22.8c5.9,6.3,15.2,6.1,22.9-1.1 c10-9.4,19.9-19,29.5-28.9C74.5,306.6,76,302.4,79.1,297.1z M80.7,390.5c4.9-2.2,8.8-2.9,11.3-5.2c10-9.3,19.9-18.9,29.3-28.9 c5.3-5.7,4.6-14.5-0.4-20.1c-5.4-6-14.4-7.5-20.6-1.9c-10.7,9.5-21.1,19.5-30.3,30.4c-2.8,3.4-2.8,11.4-0.9,16 C70.8,384.9,76.7,387.4,80.7,390.5z M31,249.4c-3.8-4.3-6.8-10.5-11.2-11.9c-4.9-1.5-12.5-0.5-16.6,2.6c-9,6.7-16.7,15.2-24.7,23.2 c-7.5,7.5-8,17.1-1.5,23.5c6.3,6.2,15.4,6,22.9-1c8.3-7.7,16.5-15.5,24.2-23.8C27,259.1,28.2,254.8,31,249.4z M148.8,387.5 c-12,2-28,19.5-27.2,30c1,12.8,15.5,20,25.7,12.1c5.5-4.2,11.1-9.3,14.2-15.2c2.3-4.4,2.5-11.7,0.3-16.1 C159.5,393.7,153.3,391,148.8,387.5z"></path> </g> <g id="Layer_2"> <g> <path class="st2" d="M209.6,0c6.1,1.8,12.2,3.4,18.2,5.5c36.4,12.8,60.2,45.9,60.6,84.5c0.3,27.2,0.1,54.3,0.1,82.6 c10.1,0,19.5,0,28.8,0c33.7,0.2,57.7,23.5,57.3,57c-0.4,29.6,0,59.5-4.2,88.6c-2.8,19.4-12.3,38.1-20.2,56.5 c-4.9,11.4-16.5,14.4-26,9c-9.1-5.2-11.9-15.7-6-26.3c14.6-26.1,20.6-54,19.9-83.7c-0.4-14.7,0.1-29.4-0.1-44 c-0.1-13.3-7.2-20.5-20.5-20.5c-86.6-0.1-173.1-0.1-259.7,0c-11.8,0-20.6,6.3-20.4,16.6c0.4,29.3-1.8,59.3,3.7,87.7 c18.2,95,122.1,146.3,209.8,105.7c3-1.4,6-3.1,9.2-4.1c9.1-2.7,18.6,1.7,22.2,10c3.8,8.8,0.9,19.8-8.5,23.3 c-19.6,7.4-39.4,16.2-59.9,19C111.3,481.2,21.5,416.2,3.8,314.1c-5.3-30.4-3.9-62.2-2.5-93.3c1.3-27.5,25.8-47.6,53.5-48.2 c10-0.2,20,0,31,0c0-19.6-0.2-38.2,0.1-56.7c0.2-14.3-0.9-29.1,2-43c8.1-38.4,32.9-61.5,70.8-70.9c2.3-0.6,4.6-1.3,6.9-1.9 C180.3,0,195,0,209.6,0z M251.8,172.2c0-27.8,0.2-54.9-0.1-82c-0.2-25.4-17.2-46.8-42.2-51.7c-10.3-2-21.2-1.8-31.9-1.7 c-31.5,0.3-54.5,22.7-55.1,54.1c-0.5,25-0.1,50.1-0.1,75.2c0,2,0.5,4,0.9,6.2C166.1,172.2,208.2,172.2,251.8,172.2z"></path> <path class="st2" d="M223.7,289.9c-4.2,7.8-8.4,15.6-12.4,23.5c-2,4-4.7,8.2-5.1,12.5c-0.7,10-0.1,20.1-0.3,30.2 c-0.2,11.9-7.6,19.9-18.1,20.1c-10.8,0.2-18.3-8.1-18.5-20.5c-0.1-6.1,0-12.2,0-18.3c0-10.5,0.6-20-8.7-28.9 c-10.1-9.6-8.8-27.5-0.6-39c8.7-12.2,23.9-17.2,38.1-12.5c13.9,4.5,23.1,17.2,23.3,31.8C222.2,289.1,222.9,289.5,223.7,289.9z"></path> </g> </g> </svg> 