<?xml version="1.0" encoding="UTF-8"?> <svg xmlns="http://www.w3.org/2000/svg" xmlns:xlink="http://www.w3.org/1999/xlink" xmlns:svgjs="http://svgjs.com/svgjs" version="1.1" width="512" height="512" x="0" y="0" viewBox="0 0 512 512" style="enable-background:new 0 0 512 512" xml:space="preserve" class=""><g><path xmlns="http://www.w3.org/2000/svg" d="m477.511719 250.828125c-17.832031-8.917969-41.097657-13.828125-65.511719-13.828125s-47.679688 4.910156-65.511719 13.828125c-22.242187 11.117187-34.488281 27.515625-34.488281 46.171875 0 .59375.011719 1.183594.035156 1.769531-.023437.410157-.035156.816407-.035156 1.230469v24.710938c-17.101562-7.574219-38.128906-11.710938-60-11.710938-24.414062 0-47.679688 4.910156-65.511719 13.828125-22.242187 11.117187-34.488281 27.515625-34.488281 46.171875 0 .238281.011719.472656.015625.710938-.003906.097656-.015625.191406-.015625.289062v78c0 6.882812 1.675781 13.460938 4.898438 19.582031-72.328126-5.121093-116.898438-56.800781-116.898438-136.582031 0-55.453125 29.941406-106.882812 88.996094-152.855469.632812-.492187 1.261718-.96875 1.894531-1.457031-30.449219 44.300781-45.890625 89.785156-45.890625 135.3125 0 11.046875 8.953125 20 20 20s20-8.953125 20-20c0-61.9375 35.910156-124.582031 106.738281-186.199219.320313-.277343.621094-.539062.917969-.800781h60.367188c13.328124 5.6875 64.496093 28.976562 108.636718 68.75 8.203125 7.394531 20.851563 6.734375 28.246094-1.46875 7.394531-8.207031 6.734375-20.855469-1.472656-28.246094-39.53125-35.621094-83.078125-58.851562-106.679688-69.988281l26.875-68.765625c.90625-2.320312 1.371094-4.789062 1.371094-7.28125v-2c0-6.570312-3.226562-12.722656-8.632812-16.457031-5.402344-3.730469-12.296876-4.570313-18.441407-2.25-45.050781 17.039062-88.832031 17.039062-133.84375 0-6.144531-2.324219-13.042969-1.484375-18.449219 2.25s-8.632812 9.886719-8.632812 16.457031v2c0 2.492188.464844 4.960938 1.371094 7.28125l26.878906 68.773438c-19.328125 9.121093-52.046875 26.367187-84.996094 51.878906-30.089844 23.304687-54.167968 48.734375-71.570312 75.597656-22.351563 34.5-33.683594 71.332031-33.683594 109.46875 0 52.3125 15.84375 96.621094 45.8125 128.132812 29.25 30.757813 69.996094 47.632813 117.835938 48.804688.160156.007812.320312.007812.476562.007812l87.75.054688h.125.113281 2.375.011719c.277344 0 .550781-.03125.824219-.042969 23.195312-.425781 45.167969-5.273437 62.1875-13.785156 5.4375-2.71875 10.277343-5.757813 14.488281-9.0625 4.210938 3.308594 9.046875 6.34375 14.484375 9.0625 17.835937 8.917969 41.101563 13.828125 65.515625 13.828125s47.679688-4.910156 65.511719-13.828125c22.242187-11.117187 34.488281-27.515625 34.488281-46.171875v-155c0-18.65625-12.246094-35.054688-34.488281-46.171875zm-179.914063-200.863281-15.253906 39.035156h-52.6875l-15.253906-39.03125c27.695312 5.339844 55.496094 5.335938 83.195312-.003906zm2.027344 412.429687c-12.179688 6.089844-29.488281 9.585938-47.503906 9.601563h-.253906c-18.011719-.015625-35.3125-3.511719-47.492188-9.601563-10.222656-5.109375-12.375-9.703125-12.375-10.394531v-30.289062c16.992188 7.296874 38.023438 11.289062 60 11.289062.746094 0 1.492188-.003906 2.234375-.011719 11.046875-.132812 19.894531-9.191406 19.765625-20.234375-.128906-11.046875-9.210938-19.933594-20.234375-19.765625-.585937.007813-1.175781.011719-1.765625.011719-18.058594 0-35.417969-3.5-47.625-9.605469-10.222656-5.109375-12.375-9.703125-12.375-10.394531s2.152344-5.285156 12.375-10.398438c12.207031-6.101562 29.566406-9.601562 47.625-9.601562 17.847656 0 35.117188 3.636719 47.378906 9.976562 9.628906 4.984376 12.621094 9.824219 12.621094 11.023438v78c0 .691406-2.152344 5.285156-12.375 10.394531zm172.375-10.394531c0 .691406-2.152344 5.285156-12.375 10.394531-12.207031 6.105469-29.566406 9.605469-47.625 9.605469s-35.417969-3.5-47.625-9.605469c-10.222656-5.109375-12.375-9.703125-12.375-10.394531v-30.289062c16.992188 7.296874 38.023438 11.289062 60 11.289062.757812 0 1.511719-.003906 2.265625-.015625 11.042969-.144531 19.878906-9.21875 19.730469-20.261719-.144532-10.957031-9.066406-19.734375-19.992188-19.734375-.089844 0-.179687 0-.269531 0-.574219.007813-1.15625.011719-1.734375.011719-18.058594 0-35.417969-3.5-47.625-9.605469-10.222656-5.109375-12.375-9.703125-12.375-10.394531v-27.273438c16.988281 7.292969 38.03125 11.273438 60 11.273438.757812 0 1.511719-.003906 2.265625-.015625 11.042969-.144531 19.878906-9.21875 19.730469-20.261719-.144532-11.046875-9.175782-19.90625-20.261719-19.734375-.574219.007813-1.15625.011719-1.734375.011719-18.058594 0-35.417969-3.5-47.625-9.605469-10.222656-5.109375-12.375-9.703125-12.375-10.394531s2.152344-5.285156 12.375-10.398438c12.207031-6.101562 29.566406-9.601562 47.625-9.601562s35.417969 3.5 47.625 9.601562c10.222656 5.113282 12.375 9.703126 12.375 10.398438zm0 0" fill="#f68d2e" data-original="#000000" style="" class=""></path></g></svg> 