<?xml version="1.0" encoding="UTF-8"?> <!-- Generator: Adobe Illustrator 23.0.0, SVG Export Plug-In . SVG Version: 6.00 Build 0) --> <svg xmlns="http://www.w3.org/2000/svg" xmlns:xlink="http://www.w3.org/1999/xlink" version="1.1" id="Layer_1" x="0px" y="0px" viewBox="0 0 330.1 331.7" style="enable-background:new 0 0 330.1 331.7;" xml:space="preserve"> <style type="text/css"> .st0{fill:#425563;} </style> <g> <path class="st0" d="M330.1,51.8c-1.8,8.8-3.3,17.7-5.4,26.4c-8.9,38-26,71.8-53.4,99.6c-7.3,7.4-9.4,15.1-10.4,24.5 c-2.8,28-5.8,56.1-8.8,84.1c-0.5,4.3-0.7,8.6-1.5,12.8c-3.2,17-17.2,29.6-34.5,30.8c-7.5,0.5-15,0.3-22.6,0.3 c-6.8,0-10.5-3.7-12.4-10.1c-5.8-19.5-12.8-38.4-24-55.6c-5.5-8.4-5.5-8.3-14.8-4c-9.6,4.4-19.3,8.6-28.8,13.1 c-6.5,3.1-11.9,1.9-16.9-3.2c-12.3-12.7-24.8-25.3-37.3-37.8c-4.9-4.9-5.8-10.3-3.1-16.5c4.8-11.1,9.2-22.3,14.2-33.3 c2-4.4,1.1-7-2.6-9.8c-16.2-12.3-34.7-18.9-54.3-23.1C3,147.8,0.1,144.7,0.2,133.8c0-7.8-0.7-15.7,0.8-23.2c4-19.8,19-30.3,42-32.4 c27.9-2.4,55.6-6.7,83.5-8.3c12.4-0.8,20.4-6.2,28.9-14C187,26.5,224.7,9.7,267.1,3c6.3-1,12.7-2,19-3c5.2,0,10.4,0,15.5,0 c2.2,0.6,4.5,1.4,6.7,1.7c10.7,1.1,17.4,6.7,20,16.9c0.4,1.6,1.2,3.2,1.8,4.7C330.1,32.8,330.1,42.3,330.1,51.8z M289.6,25.3 c0-0.2,0-0.3,0-0.5c-5.8,0.6-11.6,1-17.3,1.8c-34.9,5-67.3,17.3-93.5,40.9C148.4,95,120.2,125,91,153.7c-3.5,3.4-1.5,5.5,1,7.9 c25.3,25.4,50.5,50.8,75.6,76.4c3.2,3.3,5.3,3.8,8.9,0.2c25.7-25.6,52.2-50.4,77.2-76.6c32.6-34.2,49.9-75.5,52.1-122.8 c0.6-13.5,0.1-13.5-13.6-13.5C291.3,25.3,290.5,25.3,289.6,25.3z M235.1,216.8c-0.6-0.2-1.2-0.5-1.8-0.7 c-15.3,15.1-30.7,30.2-45.8,45.5c-1.1,1.1-1.4,4.1-0.8,5.6c4.6,11.8,9.4,23.5,14.5,35.2c0.7,1.6,2.7,3.5,4.3,3.7 c14.2,2.1,21.5-4,22.8-18.3c1.5-15.8,3.3-31.6,4.9-47.4C233.9,232.5,234.4,224.7,235.1,216.8z M114.6,98.7c-0.7-1-1.4-2.1-2.1-3.1 c-1.6,0-3.3-0.2-4.9,0c-22.4,2.5-44.8,5-67.3,7.4c-11.4,1.3-16.3,6.8-16.5,18.2c-0.1,4.7,1.7,6.5,6.2,8 c10.8,3.5,21.5,7.6,31.9,12.1c4.1,1.8,6.6,1.2,9.5-1.8c9.6-9.9,19.3-19.7,29.2-29.3C105,106,110,102.5,114.6,98.7z M90.5,197.3 c-2.7,6.4-5.8,13.4-8.5,20.5c-0.5,1.3,0.6,3.7,1.7,4.9c7.4,7.8,14.9,15.5,22.6,23.1c1.2,1.2,3.7,2.5,4.9,2 c7.2-2.9,14.3-6.2,21.6-9.5C118.2,224.2,104.5,210.9,90.5,197.3z"></path> <path class="st0" d="M10.7,331.7c-3.3-3-7.3-5.3-9.3-8.8c-2.9-4.8-0.9-9.7,2.9-13.5c8.3-8.5,16.6-16.9,25-25.4 c3.5-3.5,6.9-7.2,10.5-10.5c5.3-4.8,12.2-4.7,16.8,0.1c4.6,4.7,5.1,11.2,0.3,16.3c-11.9,12.5-24,24.8-36.3,36.9 C18.4,328.8,15,329.6,10.7,331.7z"></path> <path class="st0" d="M11.1,265.4c-3.2-2.5-7.5-4.4-9.1-7.7c-1.5-3.1-1.6-8.7,0.3-11.3c4.4-6,10.1-11.1,15.8-15.9 c4.4-3.6,9.5-2.2,13.6,1.3c4.2,3.6,6,9.1,2.8,13.3c-4.9,6.6-11.3,12.1-17.3,17.9c-1,1-3.3,0.8-4.9,1.1 C11.8,264.7,11.5,265,11.1,265.4z"></path> <path class="st0" d="M76.9,331.3c-3-2.4-7.6-4.3-8.8-7.6c-1.4-3.6-1.1-9.2,1-12.4c3.4-5.3,8.5-9.7,13.4-13.8 c5-4.2,11.4-3.6,15.8,0.8c4.3,4.2,4.9,11,0.8,15.8c-4,4.7-8.5,9.1-13.2,13.2C83.9,329.1,80.9,329.6,76.9,331.3z"></path> <path class="st0" d="M196.2,177.2c0.2,7.1-2.4,10.4-6.8,12.6c-5.3,2.7-9.8,0.8-13.5-2.8c-8.4-8.1-16.5-16.4-24.8-24.6 c-2.7-2.7-5.6-5.4-8.1-8.3c-4.3-5-4.1-12,0.2-16.4c4.4-4.5,10.9-5.4,15.7-0.9c11.9,11.2,23.4,22.9,34.8,34.7 C195.5,173.2,195.9,176.4,196.2,177.2z"></path> <path class="st0" d="M190.7,97.7c1.2,0.7,4.4,2,6.8,4.2c10.5,10.2,20.8,20.6,31.1,31c5.4,5.6,5.7,13.2,1,17.9s-12.3,4.5-17.9-1 c-10.6-10.4-21-21-31.5-31.5c-3.9-3.9-5-8.5-2.9-13.6C179.4,100,183.1,97.4,190.7,97.7z"></path> <path class="st0" d="M265,101.4c-2.1,2.9-3.8,7.3-6.8,8.7c-3.4,1.6-9.4,2-11.9,0c-9.4-7.8-18.2-16.6-26.6-25.5 c-3.8-4-2.4-10.8,1.5-14.7c4.2-4.2,10.9-5.2,15.3-1.2c8.6,7.8,16.9,16,25,24.4C263.2,94.8,263.5,97.7,265,101.4z"></path> </g> </svg> 