<?xml version="1.0" encoding="UTF-8"?> <!-- Generator: Adobe Illustrator 23.0.0, SVG Export Plug-In . SVG Version: 6.00 Build 0) --> <svg xmlns="http://www.w3.org/2000/svg" xmlns:xlink="http://www.w3.org/1999/xlink" version="1.1" id="sheild" x="0px" y="0px" viewBox="0 0 465.4 465.3" style="enable-background:new 0 0 465.4 465.3;" xml:space="preserve"> <style type="text/css"> .st0{fill:#63666a;} </style> <g id="sheild_x5F_1"> <g> <path class="st0" d="M376.4,0c9.1,4.9,12.5,12.4,13.1,22.9c1.6,30.7,25.1,54.3,57.1,58.7c13.8,1.9,20,9.2,18.6,22.8 c-6.5,61.7-22.8,120.7-51.9,175.7c-2.6,5-7.4,9.9-12.4,12.3c-6.6,3.2-13.8,1-18.9-4.8c-5.6-6.5-5.5-13.6-2.2-21.2 c9.7-22.5,20.7-44.6,28.2-67.8c8.7-26.9,14.1-54.9,21-82.7c-41.1-13.2-65.5-39.3-74.9-79.2c-81.1,0-161.7,0-242.8,0 c-9.6,39.7-33.7,66.1-74.7,79.1c4.3,21.9,7.3,44.1,13.1,65.5C77,283,135.7,362.4,222.8,421.2c6.5,4.4,11,4.6,17.6,0.1 c31.5-21.5,59.7-46.6,84.8-75.2c2-2.3,3.8-4.7,6-6.9c7.5-7.6,17.8-8.3,25.3-1.9s8.9,17.2,2.2,25.3c-33,39.8-71,73.7-115.9,99.7 c-8.4,4.9-15.9,3.5-23.9-1.1c-58.4-34.2-105.7-80-143.4-135.8c-45.1-66.8-68.9-141-75.3-221C-1,90.5,4.9,83.5,18.8,81.6 C52.3,77,74.3,53.4,76.1,19.3C76.7,9.9,81.9,4.5,89,0C184.8,0,280.6,0,376.4,0z"></path> <path class="st0" d="M78,143.2c3.4-4.7,5.8-10.6,10.2-13.8c18.6-13.3,33.5-29.6,44.8-49.4c5.6-9.8,16-12.5,24.9-7.5 c9.2,5.2,12.8,16.3,5.9,25.8c-11.8,16.4-24.3,32.4-38.1,47c-5.9,6.3-7,10.7-4.8,18.5c19.7,69.9,58.5,127.1,114.8,172.6 c2.4,1.9,4.9,3.6,7.1,5.7c7.8,7.1,8.8,17.5,2.7,25.3c-6.3,7.8-17,9.9-25,2.9c-17-14.5-34.4-28.9-49.7-45.2 c-46-49-75.6-106.9-89.8-172.7c-0.6-2.7-1-5.3-1.4-8C79,144.1,78.5,143.7,78,143.2z"></path> </g> </g> </svg> 