<?xml version="1.0" encoding="UTF-8"?> <!-- Generator: Adobe Illustrator 23.0.0, SVG Export Plug-In . SVG Version: 6.00 Build 0) --> <svg xmlns="http://www.w3.org/2000/svg" xmlns:xlink="http://www.w3.org/1999/xlink" version="1.1" id="bintang" x="0px" y="0px" viewBox="0 0 480.4 465.3" style="enable-background:new 0 0 480.4 465.3;" xml:space="preserve"> <style type="text/css"> .st0{fill:#ef7482;} </style> <g id="bintang_1_"> <g> <path class="st0" d="M0,322.3C7.9,302,23.1,294.1,44.3,296c4.7,0.4,9.4,0.1,14.1,0.1c17,0,17,0,22.4-16.7 c2.5-7.7,4.8-15.5,7.7-23.1c5.3-13.8,17.6-22.2,31.7-22.2c14.2,0,26.4,8.4,31.6,22.3c4,10.8,7.6,21.8,10.8,32.9 c1.5,5.1,3.7,7.1,9.1,6.8c8.7-0.4,17.5,0.3,26.3-0.2c20-1.1,34.7,6,41.9,27.3c1.6-3.2,2.7-5.2,3.7-7.3 c6.1-12.8,16.5-19.3,30.5-19.8c11.6-0.4,23.1-0.4,34.7,0c5.3,0.2,7.7-1.6,9.1-6.8c3-10.5,6.5-20.9,10.2-31.1 c5.4-15.3,17.3-24.1,32.2-24.1c14.9,0,26.9,8.7,32.3,23.9c3.7,10.3,7.3,20.6,10.1,31.2c1.6,5.7,4.4,7.2,9.9,7 c11.6-0.4,23.1-0.4,34.7,0c17.3,0.6,30.9,13.3,32.9,30.3c1.3,10.7-3.8,19.4-13,22.2c-9.3,2.9-16.7-0.8-22.8-10.1 c-1.6-2.4-5.5-4.5-8.5-4.7c-10.9-0.6-21.9-0.1-32.8-0.3c-16.5-0.3-27.8-8.5-33.2-24c-3-8.7-5.7-17.5-10.5-26.3 c-2.8,8.4-5.6,16.8-8.4,25.2c-5.7,16.7-16.7,24.9-34.2,25.2c-9.3,0.2-18.7,0-29.2,1.9c5.5,4,11,8.1,16.5,12.1 c22.2,16.1,25.5,26.1,17.1,52c-2.1,6.4-4,12.9-6.8,21.8c9.2-6.8,16.4-12.2,23.7-17.4c15.2-10.9,28.9-11,44.1-0.3 c7.4,5.2,14.6,10.6,23.9,17.4c-2.7-8.8-4.8-15.4-6.8-22.1c-3.4-11.7,1.3-21.3,11.8-24.8c10-3.3,19.6,1.7,23.6,12.8 c4.1,11.5,7.9,23,11.3,34.7c4.2,14.7-1,28.9-13,37.2c-11.6,8.1-26.3,8.3-38.7-0.1c-9.8-6.7-19.4-13.7-28.7-21.1 c-3.9-3.1-6.7-2.9-10.5,0.1c-8.9,6.9-18,13.6-27.2,20c-13.5,9.4-28.9,9.5-41,0.4c-12.1-9-16.3-22.8-11.5-38.5 c3.2-10.4,6.4-20.9,10.2-31.2c1.8-4.9,1.3-7.8-3.3-10.8c-7.6-4.9-15.2-10-22-16c-7.5-6.6-14.1-14.2-21.1-21.3 c-5.9,17.8-25.1,24.9-40,36.6c-4.7,3.7-6.2,6.5-4,12.3c3.9,10.2,7.1,20.7,10.2,31.1c4.6,15.4-0.2,29.6-12.4,38.3 c-11.8,8.4-26.8,8.5-39.5-0.2c-8.5-5.8-17.1-11.6-24.8-18.4c-6.6-5.8-11.2-5-17.5,0.3c-7.3,6.3-15.4,11.7-23.3,17.3 c-13.5,9.5-28.8,9.7-41,0.7c-12.4-9.1-16.6-23-11.5-39.3c3.2-10.4,6.4-20.9,10.1-31.2c1.8-4.8,0.8-7.3-3.3-10 c-7-4.6-13.5-10.1-20.6-14.7C11.5,357,3.7,348.9,0,337.3C0,332.3,0,327.3,0,322.3z M165.9,421.2c-2.7-8.6-4.7-15.1-6.7-21.5 c-8.4-25.9-5.2-35.7,17.1-51.9c5.5-4,11-8.2,16.5-12.3c-8.4-1.7-15.9-1.7-23.3-1.7c-24.9,0-34.1-6.7-41.7-30.3 c-2.2-6.8-4.6-13.5-7.7-22.7c-3.6,10.9-6.2,18.8-8.9,26.8c-6.2,18.4-16.7,26-36.2,26.2c-8.9,0.1-17.8,0-26.7,0 c5.8,6.7,12.2,11.4,18.6,16c18.3,13.3,22.4,25.5,15.4,47c-2.4,7.4-4.7,14.9-7.9,24.7c9.3-6.8,16.3-12,23.3-17.1 c15.5-11.2,29.2-11.3,44.8-0.3C149.6,409.2,156.8,414.5,165.9,421.2z"></path> <path class="st0" d="M240.3,200.3c-10.7,7.8-20.7,15.2-30.8,22.5c-14.5,10.4-29.9,11-42.5,1.8s-16.6-23.2-11.3-40.2 c3.1-10.1,6.2-20.3,9.9-30.2c1.8-4.8,0.7-7.3-3.2-10.1c-9-6.2-17.9-12.6-26.6-19.1c-13.6-10.2-18.4-23.9-13.9-38.6 c4.7-15.1,16.7-24,33.9-24.4c11.2-0.3,22.5,0.3,33.7-0.3c2.7-0.2,6.7-3,7.7-5.6c4.1-10.4,7.1-21.3,10.8-31.9 C213.3,9,225.4,0.1,240.1,0c14.6-0.1,26.9,8.9,32.3,24c3.3,9.1,6.6,18.2,8.9,27.6c2,7.9,5.5,11.4,14.1,10.6 c9.6-0.8,19.4-0.4,29-0.1c16.8,0.4,29,8.9,33.9,23.3c5,14.9,0.3,29.1-13.4,39.6c-8.2,6.2-16.4,12.6-25.1,18 c-6,3.8-6.6,7.6-4.2,13.8c3.7,9.6,6.7,19.5,9.7,29.3c4.7,15.6,0.4,29.7-11.6,38.5c-12.1,8.9-27.8,8.9-41-0.5 C261.9,216.4,251.5,208.5,240.3,200.3z M195.1,184.5c0.6,0.4,1.1,0.7,1.7,1.1c6.8-5,13.5-10,20.3-14.9c16.2-11.7,30.2-11.7,46.4,0 c6.9,5,13.7,9.9,22.6,16.4c-3-9.4-5.1-16.1-7.3-22.9c-7.7-23.4-3.9-34.9,15.9-49.2c6.1-4.4,12.1-8.9,18.2-13.4 c-9.8-2-18.7-1.9-27.7-2c-19.6-0.2-29.7-7.7-36-26.4c-2.7-8-5.4-16-9-26.6c-3.1,9.6-5.4,16.4-7.5,23.2 c-7.5,23.2-16.6,29.8-41.1,29.8c-7.8,0-15.5,0-23.3,0c6.3,7.1,12.8,11.8,19.3,16.6c17.8,13,21.7,25.2,14.8,46.4 C199.9,169.8,197.5,177.1,195.1,184.5z"></path> </g> </g> </svg> 