<?xml version="1.0" encoding="UTF-8"?> <!-- Generator: Adobe Illustrator 23.0.0, SVG Export Plug-In . SVG Version: 6.00 Build 0) --> <svg xmlns="http://www.w3.org/2000/svg" xmlns:xlink="http://www.w3.org/1999/xlink" version="1.1" id="_cloud1" x="0px" y="0px" viewBox="0 0 472 512" style="enable-background:new 0 0 472 512;" xml:space="preserve"> <style type="text/css"> .st0{fill-rule:evenodd;clip-rule:evenodd;fill:#1db0c0;} </style> <path id="stp_x5F_1" class="st0" d="M371.8,48.9l54.3,45.3c8.4,7.1,21,6.1,28.2-2.3c7.1-8.4,6.1-21-2.3-28.2 c-0.1-0.1-0.2-0.1-0.3-0.2l-54.3-45.3c-8.4-7.1-21.1-6.1-28.2,2.4s-6.1,21.1,2.4,28.2C371.7,48.8,371.8,48.8,371.8,48.9z M33.1,98.8 c4.7,0,9.2-1.6,12.8-4.6l54.3-45.3c8.5-7,9.7-19.6,2.7-28.2c-7-8.5-19.6-9.7-28.2-2.7c-0.1,0-0.1,0.1-0.2,0.1L20.2,63.4 c-8.5,7.1-9.6,19.7-2.6,28.2C21.5,96.2,27.1,98.8,33.1,98.8z M402.9,109.1C363.6,69.6,311.5,45.4,256,40.8V20c0-11-9-20-20-20 s-20,9-20,20v20.8C86.1,51.9-10.2,166.1,0.8,296c4.7,55.5,28.9,107.5,68.3,146.9c82.5,82.5,212.8,92.3,306.7,23.2 c8.9-6.5,10.9-19,4.4-27.9s-19-10.9-27.9-4.4c-0.1,0.1-0.2,0.1-0.2,0.2c-33.6,24.9-74.3,38.2-116.1,38.1c-108.1,0-196-87.9-196-196 S127.9,80,236,80s196,87.9,196,196c0,33-8.3,65.4-24.2,94.4c-5.3,9.7-1.8,21.8,7.9,27.2c9.7,5.3,21.8,1.8,27.2-7.9 C493.4,297.6,477.1,183.3,402.9,109.1L402.9,109.1z M333.4,155.6c-8.6-6.9-21.2-5.6-28.1,3l-63.1,77.9 c-21.8-3.5-42.4,11.4-45.8,33.3c-3.5,21.8,11.4,42.4,33.3,45.8s42.4-11.4,45.8-33.3c1.1-7,0.4-14.1-2.2-20.7l63.1-77.9 C343.3,175.1,342,162.5,333.4,155.6L333.4,155.6z"></path> </svg> 