<?xml version="1.0" encoding="UTF-8"?> <svg xmlns="http://www.w3.org/2000/svg" width="512" height="512" viewBox="0 0 512 512"><defs><style> .cls-1 { fill: #f8b82b; fill-rule: evenodd; } </style></defs><path id="Forma_1" data-name="Forma 1" class="cls-1" d="M457.042,0.024c-1.035-.024-26.7,0-55.968,11.341-34.538,13.384-60.266,36.893-75.2,68.484l-87.4-8.876a79.749,79.749,0,0,0-64.694,23.019L23.141,243.921a80.016,80.016,0,0,0,.024,113.007L154.57,488.316A80.61,80.61,0,0,0,211.7,512a79.047,79.047,0,0,0,56.056-23.08,20,20,0,1,0-28.283-28.283c-15.457,15.428-40.845,15.169-56.59-.579L51.473,328.67a40,40,0,0,1-.051-56.465L202.059,122.276a39.9,39.9,0,0,1,32.367-11.529l101.909,10.347c0.284,0.035.566,0.064,0.849,0.086l49.486,5.025,3.106,30.465a270.61,270.61,0,0,1-69.956,15.292,19.989,19.989,0,0,0,1.05,39.951q0.533,0,1.067-.028a305.959,305.959,0,0,0,72.009-14.324l8.189,80.307a39.794,39.794,0,0,1-11.471,32.275l-76.907,75.405a20,20,0,1,0,28.029,28.535l76.976-75.472,0.127-.125a79.6,79.6,0,0,0,23.057-64.668l-9.437-92.536C484.624,153.488,512,110.505,511.967,56V55A55.037,55.037,0,0,0,457.042.024Zm14.909,55.981h0c0.019,33.908-14.73,61.144-43.927,81.285l-3.2-31.348A20,20,0,0,0,406.944,88.08l-37.676-3.826c10.592-15.617,25.683-27.394,45.1-35.152A129.613,129.613,0,0,1,456.944,40a15.017,15.017,0,0,1,15.007,14.992v1.011Z"></path></svg> 