<?xml version="1.0" encoding="UTF-8"?> <!-- Generator: Adobe Illustrator 21.0.0, SVG Export Plug-In . SVG Version: 6.00 Build 0) --> <svg xmlns="http://www.w3.org/2000/svg" xmlns:xlink="http://www.w3.org/1999/xlink" version="1.1" id="Layer_1" x="0px" y="0px" viewBox="0 0 469.3 469.2" style="enable-background:new 0 0 469.3 469.2;" xml:space="preserve"> <style type="text/css"> .st0{fill:#e05666;} </style> <path class="st0" d="M0,288.7c0-8.6,0-17.1,0-25.7c5-8.3,9.1-17.3,15.3-24.6c7.9-9.3,17.2-17.4,26.3-25.6 C72,185.3,119.1,200,128,239.9c1.3,5.9,4.1,7.2,8.8,8.2c14.6,3.1,27.7,10.8,32.6,24.3c5.8,15.8,15.4,23.3,30.1,30.2 c20,9.4,26.7,29,25.3,50.9c1,0.6,1.7,1.2,2.6,1.5c29.9,12.8,41.5,34.1,34.8,66c-1.4,6.5,2.2,8.5,6.2,10.2c6.4,2.7,12.7,2.1,17.7-3.3 c5.2-5.7,5.3-12.1,1.5-18.6c-1.1-1.8-2.7-3.3-3.9-5.1c-5.2-7.6-4.4-17.4,1.7-23.6c6.6-6.7,16.1-7.4,24.2-1.6 c2.2,1.6,4.2,3.6,6.4,5.2c6.3,4.5,13.1,5.8,19.4,0.4c6.5-5.7,6-13.1,2.3-20.1c-1.8-3.4-5.1-6-7.6-9.1c-6.4-8-6-18.1,1-24.9 c6.8-6.7,17.2-7,25-0.6c2.6,2.1,4.7,4.8,7.3,7c6.9,5.8,15.7,5.6,21.6-0.2c5.9-5.8,6.3-14.6,0.5-21.5c-3.3-4-7.4-7.3-10.6-11.4 c-5-6.4-5.4-13.6-1.2-20.6c4-6.5,10.4-10.3,17.9-8.5c5,1.2,9.6,4.9,13.8,8.3c7.9,6.2,17,6.4,23-0.1c6-6.6,5.5-16.3-2.1-22.7 c-40.7-34.8-81.2-69.8-122.4-104c-23.7-19.6-56.4-17.4-78.7,3.7c-5.6,5.3-10.8,10.8-16.3,16.2c-23.1,22.4-56.2,23.1-78.3,1.8 c-21.8-21.1-22.2-55-0.7-78.5c9.9-10.8,20.1-21.5,30.1-32.2c5.1-5.4,10.2-10.8,17.6-18.6C159,44.2,143,40.6,127.1,37 c-5.9-1.3-10.2,0.8-14.5,5.2c-25.5,26-51.4,51.6-77.2,77.3c-13.7,13.7-22.1,13.7-35.4,0.2c0-5.5,0-11,0-16.5 c31.9-32,63.7-64.3,96.1-95.8c4.5-4.3,12.3-7.3,18.6-7.4c31.2-0.3,60.5,7.7,87.8,22.7c5,2.7,8.5,2.5,13.3-0.1 c26.8-14.5,55.5-22.7,86-22.5c6.7,0,14.7,2.6,19.9,6.7c32,25.2,63.3,51.2,94.9,76.9C431.8,96,447,108.3,462,120.9 c7.4,6.2,9,15.5,4.8,23.1c-4.1,7.6-12.8,11.5-21.1,8.6c-3.9-1.4-7.5-4-10.8-6.7c-42.8-34.7-85.4-69.7-128.3-104.2 c-3.6-2.9-9.3-4.8-13.9-4.6c-22,1.2-42.5,8.2-61.8,18.7c-31.8,17.3-52.9,45.9-76.7,71.7c-6.6,7.1-4.6,17.9,2.2,24.1 c7,6.3,16.7,6.6,24.2,0c6.4-5.6,12.2-12,18.4-17.9c37.3-35,90.1-37.5,129.5-4.9c41.5,34.3,82.4,69.4,123.1,104.7 c29.9,26,19.9,74.8-17.5,88.1c-2.5,0.9-5.1,1.7-7.7,2.5c-0.7,20.9-9.2,37.2-27.4,47c-6.6,3.5-16.1,3-21,7.8 c-4.9,4.7-4.6,14.2-8.2,20.8c-9.2,16.7-24.6,23.8-42.8,25.4c-7.9,40.6-53,58.6-89,30.5c-0.9,0.6-2,1.1-2.9,1.9 c-27.4,22.5-73.5,12-85-25.8c-0.8-2.6-5.2-5.4-8.3-5.8c-20.9-2.7-36-12.9-44.5-32.3c-1.8-4.1-2.9-8.5-4.2-12.5 c-31.9-3.3-47.1-19.1-51.8-53.7C20.2,322.6,7.1,308.8,0,288.7z M142.5,297.1c-4-4.3-7.1-9.2-11.5-12.1c-5.8-3.8-11.9-1.7-16.7,2.9 c-10,9.5-19.8,19.1-29.6,28.9c-7.3,7.4-7.9,16.4-1.9,22.8c5.9,6.3,15.2,6.1,22.9-1.1c10-9.4,19.9-19,29.5-28.9 C137.9,306.6,139.4,302.4,142.5,297.1z M144.1,390.5c4.9-2.2,8.8-2.9,11.3-5.2c10-9.3,19.9-18.9,29.3-28.9 c5.3-5.7,4.6-14.5-0.4-20.1c-5.4-6-14.4-7.5-20.6-1.9c-10.7,9.5-21.1,19.5-30.3,30.4c-2.8,3.4-2.8,11.4-0.9,16 C134.2,384.9,140.2,387.4,144.1,390.5z M94.5,249.4c-3.8-4.3-6.8-10.5-11.2-11.9c-4.9-1.5-12.5-0.5-16.6,2.6 c-9,6.7-16.7,15.2-24.7,23.2c-7.5,7.5-8,17.1-1.5,23.5c6.3,6.2,15.4,6,22.9-1c8.3-7.7,16.5-15.5,24.2-23.8 C90.4,259.1,91.6,254.8,94.5,249.4z M212.2,387.5c-12,2-28,19.5-27.2,30c1,12.8,15.5,20,25.7,12.1c5.5-4.2,11.1-9.3,14.2-15.2 c2.3-4.4,2.5-11.7,0.3-16.1C222.9,393.7,216.7,391,212.2,387.5z"></path> </svg> 